M48
; DRILL file KiCad 10.0.1 date 2026-08-18T14:45:19
; FORMAT={-:-/ absolute / metric / decimal}
; #@! TF.CreationDate,2026-08-18T14:45:19-04:00
; #@! TF.GenerationSoftware,Kicad,Pcbnew,10.0.1
; #@! TF.FileFunction,Plated,1,2,PTH
FMAT,2
METRIC
; #@! TA.AperFunction,Plated,PTH,ViaDrill
T1C0.300
; #@! TA.AperFunction,Plated,PTH,ComponentDrill
T2C0.864
; #@! TA.AperFunction,Plated,PTH,ComponentDrill
T3C1.000
%
G90
G05
T1
X79.248Y-61.933
X79.502Y-78.55
X81.0Y-62.75
X81.07Y-67.29
X81.23Y-75.57
X81.25Y-71.0
X81.25Y-79.5
X81.5Y-64.5
X81.75Y-81.0
X82.0Y-67.25
X82.25Y-76.75
X82.5Y-72.25
X82.5Y-75.25
X82.73Y-81.8
X83.64Y-62.5
X84.36Y-76.81
X84.5Y-81.75
X85.0Y-75.75
X85.5Y-64.75
X85.5Y-68.5
X85.5Y-70.23
X85.5Y-80.0
X86.0Y-67.5
X86.9Y-62.63
X87.0Y-70.75
X87.25Y-77.5
X87.5Y-67.75
X87.75Y-80.0
X88.0Y-81.5
X89.0Y-69.75
X89.5Y-68.25
X89.5Y-70.75
X90.25Y-68.25
X90.5Y-81.25
X90.75Y-70.5
X91.0Y-79.75
X91.25Y-69.0
X92.0Y-68.0
X92.5Y-63.0
X92.69Y-68.06
X92.75Y-82.25
X93.0Y-69.0
X93.5Y-70.0
X93.75Y-68.75
X93.75Y-76.0
X93.75Y-78.0
X94.0Y-80.0
X94.604Y-67.896
X94.75Y-81.25
X95.0Y-63.5
X95.0Y-69.25
X95.31Y-76.02
X95.847Y-70.152
X96.0Y-68.0
X96.198Y-71.97
X96.25Y-73.25
X96.29Y-67.06
X96.5Y-63.25
X97.0Y-80.0
X97.25Y-82.0
X97.75Y-67.5
X98.25Y-66.621
X98.25Y-71.25
X98.49Y-68.37
X98.5Y-63.0
X99.25Y-81.25
X99.5Y-74.5
X99.55Y-76.56
X100.0Y-77.75
X100.0Y-80.0
X100.25Y-63.0
X100.5Y-69.0
X100.5Y-82.0
X101.25Y-75.0
X101.5Y-64.0
X101.5Y-77.75
X102.0Y-65.0
X102.25Y-81.75
X102.5Y-70.75
X102.55Y-76.73
X103.0Y-63.5
X103.0Y-66.0
X103.0Y-80.0
X103.036Y-74.16
X103.25Y-68.75
X103.5Y-67.01
X103.98Y-70.97
X104.0Y-81.0
X104.25Y-76.25
X104.25Y-77.75
X104.75Y-75.0
X105.0Y-71.0
X105.25Y-79.75
X105.25Y-81.75
X106.25Y-74.75
X106.5Y-78.0
X107.75Y-65.75
X107.75Y-81.25
X108.0Y-69.0
X108.0Y-70.0
X108.24Y-66.5
X108.25Y-76.25
X108.25Y-77.5
X108.5Y-79.25
X108.5Y-80.25
X108.845Y-73.101
X110.25Y-80.25
X110.5Y-81.75
X110.75Y-75.0
X111.75Y-67.75
X111.75Y-81.75
X112.0Y-69.75
X112.0Y-73.75
X112.05Y-75.36
X112.57Y-62.69
X112.75Y-82.5
X113.0Y-66.0
X113.0Y-79.25
X113.25Y-70.25
X113.5Y-74.5
X114.5Y-66.5
X114.5Y-74.25
X114.52Y-70.52
X114.75Y-62.75
X115.816Y-65.86
X116.136Y-74.038
X116.334Y-70.495
X116.388Y-75.691
X116.5Y-67.5
X116.5Y-68.75
X116.5Y-80.0
X117.89Y-73.02
X118.0Y-78.0
X118.04Y-75.36
X118.13Y-64.11
X118.25Y-62.25
X118.25Y-63.25
X118.25Y-80.25
X119.25Y-63.25
X119.25Y-79.5
X119.25Y-80.5
X119.556Y-65.754
X119.697Y-67.353
X119.75Y-69.75
X120.0Y-73.25
X120.11Y-75.12
X120.25Y-62.5
X121.371Y-79.114
X122.5Y-77.0
X122.5Y-80.5
X122.82Y-66.74
X123.25Y-64.0
X123.75Y-72.25
X124.21Y-68.63
X124.25Y-64.75
X124.5Y-62.5
X124.5Y-64.0
X124.75Y-78.5
X124.75Y-79.75
X125.04Y-73.231
X125.75Y-69.75
X126.0Y-68.75
X127.75Y-62.75
X127.9Y-66.173
X129.0Y-63.5
X129.0Y-65.5
X129.0Y-71.25
X129.0Y-75.75
X129.0Y-78.25
X129.0Y-81.5
T2
X83.5Y-65.831
X83.5Y-70.835
T3
X49.5Y-63.75
X49.5Y-66.29
X49.5Y-68.83
X49.5Y-71.37
X49.5Y-73.91
X49.5Y-76.45
X49.5Y-78.99
X65.665Y-63.75
X65.665Y-66.29
X65.665Y-68.83
X65.665Y-71.37
X65.665Y-73.91
X65.665Y-76.45
X65.665Y-78.99
X92.985Y-65.5
X95.525Y-65.5
X114.3Y-76.962
X114.3Y-81.462
X120.8Y-76.962
X120.8Y-81.462
X127.254Y-64.77
X127.254Y-67.31
X127.254Y-69.85
X127.254Y-72.39
X127.254Y-74.93
X127.254Y-77.47
M30
