G04 #@! TF.GenerationSoftware,KiCad,Pcbnew,10.0.1*
G04 #@! TF.CreationDate,2026-08-18T14:45:22-04:00*
G04 #@! TF.ProjectId,Nimbus,4e696d62-7573-42e6-9b69-6361645f7063,rev?*
G04 #@! TF.SameCoordinates,Original*
G04 #@! TF.FileFunction,Paste,Top*
G04 #@! TF.FilePolarity,Positive*
%FSLAX46Y46*%
G04 Gerber Fmt 4.6, Leading zero omitted, Abs format (unit mm)*
G04 Created by KiCad (PCBNEW 10.0.1) date 2026-08-18 14:45:22*
%MOMM*%
%LPD*%
G01*
G04 APERTURE LIST*
G04 Aperture macros list*
%AMRoundRect*
0 Rectangle with rounded corners*
0 $1 Rounding radius*
0 $2 $3 $4 $5 $6 $7 $8 $9 X,Y pos of 4 corners*
0 Add a 4 corners polygon primitive as box body*
4,1,4,$2,$3,$4,$5,$6,$7,$8,$9,$2,$3,0*
0 Add four circle primitives for the rounded corners*
1,1,$1+$1,$2,$3*
1,1,$1+$1,$4,$5*
1,1,$1+$1,$6,$7*
1,1,$1+$1,$8,$9*
0 Add four rect primitives between the rounded corners*
20,1,$1+$1,$2,$3,$4,$5,0*
20,1,$1+$1,$4,$5,$6,$7,0*
20,1,$1+$1,$6,$7,$8,$9,0*
20,1,$1+$1,$8,$9,$2,$3,0*%
G04 Aperture macros list end*
%ADD10RoundRect,0.237500X0.237500X-0.300000X0.237500X0.300000X-0.237500X0.300000X-0.237500X-0.300000X0*%
%ADD11RoundRect,0.250000X0.650000X-0.412500X0.650000X0.412500X-0.650000X0.412500X-0.650000X-0.412500X0*%
%ADD12RoundRect,0.250000X0.350000X-0.275000X0.350000X0.275000X-0.350000X0.275000X-0.350000X-0.275000X0*%
%ADD13RoundRect,0.237500X0.300000X0.237500X-0.300000X0.237500X-0.300000X-0.237500X0.300000X-0.237500X0*%
%ADD14RoundRect,0.150000X0.512500X0.150000X-0.512500X0.150000X-0.512500X-0.150000X0.512500X-0.150000X0*%
%ADD15RoundRect,0.237500X0.250000X0.237500X-0.250000X0.237500X-0.250000X-0.237500X0.250000X-0.237500X0*%
%ADD16RoundRect,0.237500X-0.250000X-0.237500X0.250000X-0.237500X0.250000X0.237500X-0.250000X0.237500X0*%
%ADD17RoundRect,0.218750X0.218750X0.256250X-0.218750X0.256250X-0.218750X-0.256250X0.218750X-0.256250X0*%
%ADD18R,0.350000X0.500000*%
%ADD19RoundRect,0.225000X0.250000X-0.225000X0.250000X0.225000X-0.250000X0.225000X-0.250000X-0.225000X0*%
%ADD20RoundRect,0.237500X-0.300000X-0.237500X0.300000X-0.237500X0.300000X0.237500X-0.300000X0.237500X0*%
%ADD21RoundRect,0.125000X0.625000X0.125000X-0.625000X0.125000X-0.625000X-0.125000X0.625000X-0.125000X0*%
%ADD22RoundRect,0.125000X0.125000X0.625000X-0.125000X0.625000X-0.125000X-0.625000X0.125000X-0.625000X0*%
%ADD23RoundRect,0.225000X-0.250000X0.225000X-0.250000X-0.225000X0.250000X-0.225000X0.250000X0.225000X0*%
%ADD24RoundRect,0.150000X0.150000X-0.587500X0.150000X0.587500X-0.150000X0.587500X-0.150000X-0.587500X0*%
%ADD25RoundRect,0.250000X0.650000X-0.325000X0.650000X0.325000X-0.650000X0.325000X-0.650000X-0.325000X0*%
%ADD26RoundRect,0.237500X-0.237500X0.300000X-0.237500X-0.300000X0.237500X-0.300000X0.237500X0.300000X0*%
%ADD27RoundRect,0.225000X-0.225000X-0.250000X0.225000X-0.250000X0.225000X0.250000X-0.225000X0.250000X0*%
G04 APERTURE END LIST*
D10*
G04 #@! TO.C,C3*
X107910000Y-62730000D03*
X107910000Y-64455000D03*
G04 #@! TD*
D11*
G04 #@! TO.C,C6*
X97560000Y-77242500D03*
X97560000Y-74117500D03*
G04 #@! TD*
D12*
G04 #@! TO.C,L1*
X121546000Y-66054000D03*
X121546000Y-63754000D03*
G04 #@! TD*
D13*
G04 #@! TO.C,C1*
X122782500Y-68834000D03*
X121057500Y-68834000D03*
G04 #@! TD*
D14*
G04 #@! TO.C,U3*
X94775000Y-72900000D03*
X94775000Y-71950000D03*
X94775000Y-71000000D03*
X92500000Y-71000000D03*
X92500000Y-71950000D03*
X92500000Y-72900000D03*
G04 #@! TD*
D15*
G04 #@! TO.C,R5*
X106330000Y-64580000D03*
X104505000Y-64580000D03*
G04 #@! TD*
D13*
G04 #@! TO.C,C4*
X105664000Y-72898000D03*
X103939000Y-72898000D03*
G04 #@! TD*
D11*
G04 #@! TO.C,C8*
X90220000Y-76662500D03*
X90220000Y-73537500D03*
G04 #@! TD*
D16*
G04 #@! TO.C,R2*
X97385500Y-69850000D03*
X99210500Y-69850000D03*
G04 #@! TD*
G04 #@! TO.C,R4*
X123039500Y-81788000D03*
X124864500Y-81788000D03*
G04 #@! TD*
D17*
G04 #@! TO.C,D1*
X99847500Y-64008000D03*
X98272500Y-64008000D03*
G04 #@! TD*
D18*
G04 #@! TO.C,U2*
X104735000Y-67535000D03*
X105385000Y-67535000D03*
X106035000Y-67535000D03*
X106685000Y-67535000D03*
X106685000Y-69585000D03*
X106035000Y-69585000D03*
X105385000Y-69585000D03*
X104735000Y-69585000D03*
G04 #@! TD*
D16*
G04 #@! TO.C,R1*
X88646000Y-64008000D03*
X90471000Y-64008000D03*
G04 #@! TD*
D19*
G04 #@! TO.C,C9*
X87540000Y-75180000D03*
X87540000Y-73630000D03*
G04 #@! TD*
D20*
G04 #@! TO.C,C2*
X120957000Y-70358000D03*
X122682000Y-70358000D03*
G04 #@! TD*
D15*
G04 #@! TO.C,R6*
X106335000Y-63050000D03*
X104510000Y-63050000D03*
G04 #@! TD*
G04 #@! TO.C,R3*
X124356500Y-74676000D03*
X122531500Y-74676000D03*
G04 #@! TD*
D21*
G04 #@! TO.C,U1*
X118005000Y-71130000D03*
X118005000Y-70330000D03*
X118005000Y-69530000D03*
X118005000Y-68730000D03*
X118005000Y-67930000D03*
X118005000Y-67130000D03*
X118005000Y-66330000D03*
X118005000Y-65530000D03*
D22*
X116630000Y-64155000D03*
X115830000Y-64155000D03*
X115030000Y-64155000D03*
X114230000Y-64155000D03*
X113430000Y-64155000D03*
X112630000Y-64155000D03*
X111830000Y-64155000D03*
X111030000Y-64155000D03*
D21*
X109655000Y-65530000D03*
X109655000Y-66330000D03*
X109655000Y-67130000D03*
X109655000Y-67930000D03*
X109655000Y-68730000D03*
X109655000Y-69530000D03*
X109655000Y-70330000D03*
X109655000Y-71130000D03*
D22*
X111030000Y-72505000D03*
X111830000Y-72505000D03*
X112630000Y-72505000D03*
X113430000Y-72505000D03*
X114230000Y-72505000D03*
X115030000Y-72505000D03*
X115830000Y-72505000D03*
X116630000Y-72505000D03*
G04 #@! TD*
D23*
G04 #@! TO.C,C12*
X70000000Y-66725000D03*
X70000000Y-68275000D03*
G04 #@! TD*
D24*
G04 #@! TO.C,Q1*
X99800000Y-67937500D03*
X101700000Y-67937500D03*
X100750000Y-66062500D03*
G04 #@! TD*
D25*
G04 #@! TO.C,C11*
X74500000Y-68725000D03*
X74500000Y-65775000D03*
G04 #@! TD*
D26*
G04 #@! TO.C,C5*
X107696000Y-71527500D03*
X107696000Y-73252500D03*
G04 #@! TD*
D27*
G04 #@! TO.C,C7*
X110464000Y-76708000D03*
X112014000Y-76708000D03*
G04 #@! TD*
D16*
G04 #@! TO.C,R7*
X100584000Y-72898000D03*
X102409000Y-72898000D03*
G04 #@! TD*
M02*
