G04 #@! TF.GenerationSoftware,KiCad,Pcbnew,10.0.1*
G04 #@! TF.CreationDate,2026-08-18T14:45:22-04:00*
G04 #@! TF.ProjectId,Nimbus,4e696d62-7573-42e6-9b69-6361645f7063,rev?*
G04 #@! TF.SameCoordinates,Original*
G04 #@! TF.FileFunction,Copper,L2,Bot*
G04 #@! TF.FilePolarity,Positive*
%FSLAX46Y46*%
G04 Gerber Fmt 4.6, Leading zero omitted, Abs format (unit mm)*
G04 Created by KiCad (PCBNEW 10.0.1) date 2026-08-18 14:45:22*
%MOMM*%
%LPD*%
G01*
G04 APERTURE LIST*
G04 Aperture macros list*
%AMRoundRect*
0 Rectangle with rounded corners*
0 $1 Rounding radius*
0 $2 $3 $4 $5 $6 $7 $8 $9 X,Y pos of 4 corners*
0 Add a 4 corners polygon primitive as box body*
4,1,4,$2,$3,$4,$5,$6,$7,$8,$9,$2,$3,0*
0 Add four circle primitives for the rounded corners*
1,1,$1+$1,$2,$3*
1,1,$1+$1,$4,$5*
1,1,$1+$1,$6,$7*
1,1,$1+$1,$8,$9*
0 Add four rect primitives between the rounded corners*
20,1,$1+$1,$2,$3,$4,$5,0*
20,1,$1+$1,$4,$5,$6,$7,0*
20,1,$1+$1,$6,$7,$8,$9,0*
20,1,$1+$1,$8,$9,$2,$3,0*%
G04 Aperture macros list end*
G04 #@! TA.AperFunction,ComponentPad*
%ADD10RoundRect,1.000000X-0.375000X-0.000010X0.375000X-0.000010X0.375000X0.000010X-0.375000X0.000010X0*%
G04 #@! TD*
G04 #@! TA.AperFunction,ComponentPad*
%ADD11C,1.371600*%
G04 #@! TD*
G04 #@! TA.AperFunction,ComponentPad*
%ADD12R,1.700000X1.700000*%
G04 #@! TD*
G04 #@! TA.AperFunction,ComponentPad*
%ADD13C,1.700000*%
G04 #@! TD*
G04 #@! TA.AperFunction,ComponentPad*
%ADD14R,1.397480X1.398108*%
G04 #@! TD*
G04 #@! TA.AperFunction,ComponentPad*
%ADD15C,1.508000*%
G04 #@! TD*
G04 #@! TA.AperFunction,ViaPad*
%ADD16C,0.600000*%
G04 #@! TD*
G04 #@! TA.AperFunction,Conductor*
%ADD17C,0.200000*%
G04 #@! TD*
G04 APERTURE END LIST*
D10*
G04 #@! TO.P,U4,1,PA02_A0_D0_1*
G04 #@! TO.N,unconnected-(U4-PA02_A0_D0-Pad1)*
X49500000Y-63750000D03*
G04 #@! TO.P,U4,2,PA4_A1_D1_2*
G04 #@! TO.N,unconnected-(U4-PA4_A1_D1-Pad2)*
X49500000Y-66290000D03*
G04 #@! TO.P,U4,3,PA10_A2_D2_3*
G04 #@! TO.N,unconnected-(U4-PA10_A2_D2-Pad3)*
X49500000Y-68830000D03*
G04 #@! TO.P,U4,4,PA11_A3_D3_4*
G04 #@! TO.N,unconnected-(U4-PA11_A3_D3-Pad4)*
X49500000Y-71370000D03*
G04 #@! TO.P,U4,5,PA8_A4_D4_SDA_5*
G04 #@! TO.N,unconnected-(U4-PA8_A4_D4_SDA-Pad5)*
X49500000Y-73910000D03*
G04 #@! TO.P,U4,6,PA9_A5_D5_SCL_6*
G04 #@! TO.N,Net-(U1-PA1)*
X49500000Y-76450000D03*
G04 #@! TO.P,U4,7,PB08_A6_TX_7*
G04 #@! TO.N,unconnected-(U4-PB08_A6_TX-Pad7)*
X49500000Y-78990000D03*
G04 #@! TO.P,U4,8,PB09_D7_RX_8*
G04 #@! TO.N,/RX*
X65665000Y-78990000D03*
G04 #@! TO.P,U4,9,PA7_A8_D8_SCK_9*
G04 #@! TO.N,unconnected-(U4-PA7_A8_D8_SCK-Pad9)*
X65665000Y-76450000D03*
G04 #@! TO.P,U4,10,PA5_A9_D9_MISO_10*
G04 #@! TO.N,unconnected-(U4-PA5_A9_D9_MISO-Pad10)*
X65665000Y-73910000D03*
G04 #@! TO.P,U4,11,PA6_A10_D10_MOSI_11*
G04 #@! TO.N,unconnected-(U4-PA6_A10_D10_MOSI-Pad11)*
X65665000Y-71370000D03*
G04 #@! TO.P,U4,12,3V3_12*
G04 #@! TO.N,/3V6SW*
X65665000Y-68830000D03*
G04 #@! TO.P,U4,13,GND_13*
G04 #@! TO.N,GND*
X65665000Y-66290000D03*
G04 #@! TO.P,U4,14,5V_14*
G04 #@! TO.N,unconnected-(U4-5V-Pad14)*
X65665000Y-63750000D03*
G04 #@! TD*
D11*
G04 #@! TO.P,C10,1*
G04 #@! TO.N,/3V6SW*
X83500000Y-70835100D03*
G04 #@! TO.P,C10,2*
G04 #@! TO.N,GND*
X83500000Y-65831300D03*
G04 #@! TD*
D12*
G04 #@! TO.P,BT1,1,+_1*
G04 #@! TO.N,Net-(BT1-+)*
X95525000Y-65500000D03*
D13*
G04 #@! TO.P,BT1,2,-_2*
G04 #@! TO.N,GND*
X92985000Y-65500000D03*
G04 #@! TD*
D12*
G04 #@! TO.P,J2,1,Pin_1_1*
G04 #@! TO.N,/B0*
X127254000Y-64770000D03*
D13*
G04 #@! TO.P,J2,2,Pin_2_2*
G04 #@! TO.N,/nRST*
X127254000Y-67310000D03*
G04 #@! TO.P,J2,3,Pin_3_3*
G04 #@! TO.N,/TX*
X127254000Y-69850000D03*
G04 #@! TO.P,J2,4,Pin_4_4*
G04 #@! TO.N,/RX*
X127254000Y-72390000D03*
G04 #@! TO.P,J2,5,Pin_5_5*
G04 #@! TO.N,/3V6*
X127254000Y-74930000D03*
G04 #@! TO.P,J2,6,Pin_6_6*
G04 #@! TO.N,GND*
X127254000Y-77470000D03*
G04 #@! TD*
D14*
G04 #@! TO.P,S1,1*
G04 #@! TO.N,/3V6*
X120791281Y-81456198D03*
D15*
G04 #@! TO.P,S1,2*
X114300000Y-81462000D03*
G04 #@! TO.P,S1,3*
G04 #@! TO.N,Net-(U1-PA0)*
X120800000Y-76962000D03*
G04 #@! TO.P,S1,4*
X114300000Y-76962000D03*
G04 #@! TD*
D16*
G04 #@! TO.N,GND*
X82730000Y-81800000D03*
X84360000Y-76810000D03*
X83640000Y-62500000D03*
X86900000Y-62630000D03*
X81070000Y-67290000D03*
X81230000Y-75570000D03*
X85500000Y-70230000D03*
X96290000Y-67060000D03*
X92690000Y-68060000D03*
X98490000Y-68370000D03*
X95310000Y-76020000D03*
X99550000Y-76560000D03*
X102550000Y-76730000D03*
X103980000Y-70970000D03*
X112570000Y-62690000D03*
X118130000Y-64110000D03*
X108240000Y-66500000D03*
X114520000Y-70520000D03*
X112050000Y-75360000D03*
X117890000Y-73020000D03*
X120110000Y-75120000D03*
X118040000Y-75360000D03*
G04 #@! TO.N,Net-(U1-PA1)*
X79248000Y-61933200D03*
G04 #@! TO.N,/RX*
X79502000Y-78550000D03*
G04 #@! TO.N,GND*
X122820000Y-66740000D03*
X124210000Y-68630000D03*
X119750000Y-69750000D03*
X120000000Y-73250000D03*
X112000000Y-73750000D03*
X125750000Y-69750000D03*
X126000000Y-68750000D03*
X123750000Y-72250000D03*
X122500000Y-77000000D03*
X119250000Y-80500000D03*
X119250000Y-79500000D03*
X108500000Y-79250000D03*
X113000000Y-79250000D03*
X104250000Y-76250000D03*
X108250000Y-76250000D03*
X114500000Y-74250000D03*
X113500000Y-74500000D03*
X110750000Y-75000000D03*
X106250000Y-74750000D03*
X108250000Y-77500000D03*
X106500000Y-78000000D03*
X104250000Y-77750000D03*
X101500000Y-77750000D03*
X100000000Y-77750000D03*
X93750000Y-76000000D03*
X93750000Y-78000000D03*
X87250000Y-77500000D03*
X85000000Y-75750000D03*
X82250000Y-76750000D03*
X82500000Y-75250000D03*
X81250000Y-71000000D03*
X82500000Y-72250000D03*
X81000000Y-62750000D03*
X81500000Y-64500000D03*
X82000000Y-67250000D03*
X86000000Y-67500000D03*
X85500000Y-68500000D03*
X87000000Y-70750000D03*
X85500000Y-64750000D03*
X87500000Y-67750000D03*
X89500000Y-68250000D03*
X89000000Y-69750000D03*
X89500000Y-70750000D03*
X90750000Y-70500000D03*
X93500000Y-70000000D03*
X95000000Y-69250000D03*
X93000000Y-69000000D03*
X90250000Y-68250000D03*
X91250000Y-69000000D03*
X92000000Y-68000000D03*
X93750000Y-68750000D03*
X94603553Y-67896447D03*
X96000000Y-68000000D03*
X96197659Y-71970000D03*
X96250000Y-73250000D03*
X98250000Y-71250000D03*
X100500000Y-69000000D03*
X97750000Y-67500000D03*
X98250000Y-66620900D03*
X100250000Y-63000000D03*
X98500000Y-63000000D03*
X95000000Y-63500000D03*
X96500000Y-63250000D03*
X92500000Y-63000000D03*
X101500000Y-64000000D03*
X103000000Y-63500000D03*
X102000000Y-65000000D03*
X103500000Y-67009513D03*
X103000000Y-66000000D03*
X103250000Y-68750000D03*
X105000000Y-71000000D03*
X102500000Y-70750000D03*
X99500000Y-74500000D03*
X101250000Y-75000000D03*
X104750000Y-75000000D03*
X113250000Y-70250000D03*
X111750000Y-67750000D03*
X112000000Y-69750000D03*
X108000000Y-70000000D03*
X108000000Y-69000000D03*
X107750000Y-65750000D03*
X114750000Y-62750000D03*
X113000000Y-66000000D03*
X114500000Y-66500000D03*
X116500000Y-68750000D03*
X116500000Y-67500000D03*
X118250000Y-63250000D03*
X118250000Y-62250000D03*
X119250000Y-63250000D03*
X120250000Y-62500000D03*
X124250000Y-64750000D03*
X124500000Y-64000000D03*
X123250000Y-64000000D03*
X124500000Y-62500000D03*
X127750000Y-62750000D03*
X129000000Y-63500000D03*
X129000000Y-65500000D03*
X129000000Y-71250000D03*
X129000000Y-75750000D03*
X129000000Y-78250000D03*
X129000000Y-81500000D03*
X124750000Y-78500000D03*
X124750000Y-79750000D03*
X122500000Y-80500000D03*
X112750000Y-82500000D03*
X118250000Y-80250000D03*
X118000000Y-78000000D03*
X116500000Y-80000000D03*
X111750000Y-81750000D03*
X110250000Y-80250000D03*
X110500000Y-81750000D03*
X108500000Y-80250000D03*
X107750000Y-81250000D03*
X104000000Y-81000000D03*
X105250000Y-79750000D03*
X105250000Y-81750000D03*
X103000000Y-80000000D03*
X99250000Y-81250000D03*
X102250000Y-81750000D03*
X100500000Y-82000000D03*
X100000000Y-80000000D03*
X97000000Y-80000000D03*
X97250000Y-82000000D03*
X94000000Y-80000000D03*
X94750000Y-81250000D03*
X90500000Y-81250000D03*
X92750000Y-82250000D03*
X91000000Y-79750000D03*
X87750000Y-80000000D03*
X88000000Y-81500000D03*
X84500000Y-81750000D03*
X85500000Y-80000000D03*
X81750000Y-81000000D03*
X81250000Y-79500000D03*
G04 #@! TO.N,/B0*
X125040000Y-73231400D03*
X116136000Y-74038400D03*
G04 #@! TO.N,/3V6*
X116334000Y-70494800D03*
X127900000Y-66173200D03*
X116388000Y-75690800D03*
G04 #@! TO.N,Net-(U1-PB3)*
X95847400Y-70152300D03*
X108845000Y-73100700D03*
X103036000Y-74160400D03*
G04 #@! TO.N,/TX*
X115816000Y-65860300D03*
G04 #@! TO.N,/RX*
X121371000Y-79113500D03*
X119556000Y-65754000D03*
G04 #@! TO.N,Net-(U1-PA0)*
X119697000Y-67352900D03*
G04 #@! TD*
G04 #@! TO.N,/TX*
D17*
X120583818Y-65999555D02*
X121446303Y-66861960D01*
X120023948Y-65439738D02*
X120281202Y-65696969D01*
G04 #@! TO.N,/B0*
X115313999Y-65979035D02*
X115314000Y-66192380D01*
G04 #@! TO.N,/RX*
X79282000Y-78770000D02*
G75*
G02*
X78750873Y-78989989I-531100J531100D01*
G01*
G04 #@! TO.N,Net-(U1-PA1)*
X47265400Y-62208600D02*
G75*
G03*
X46989989Y-62873474I664900J-664900D01*
G01*
X47930274Y-61933200D02*
G75*
G03*
X47265407Y-62208607I26J-940300D01*
G01*
X46990000Y-72165161D02*
G75*
G03*
X48244998Y-75195002I4284830J-9D01*
G01*
G04 #@! TO.N,/3V6*
X127254044Y-74930044D02*
X126202178Y-75981878D01*
G04 #@! TO.N,/RX*
X79502000Y-78550000D02*
X79282000Y-78770000D01*
X78750873Y-78990000D02*
X65665000Y-78990000D01*
G04 #@! TO.N,Net-(U1-PA1)*
X48245000Y-75195000D02*
X49500000Y-76450000D01*
X46990000Y-62873474D02*
X46990000Y-72165161D01*
X47930274Y-61933200D02*
X79248000Y-61933200D01*
G04 #@! TO.N,/TX*
X119895321Y-65311122D02*
X120023948Y-65439738D01*
G04 #@! TO.N,/B0*
X115514712Y-65387513D02*
X115665500Y-65236600D01*
X115313999Y-65872363D02*
X115313999Y-65979035D01*
G04 #@! TO.N,/TX*
X120583818Y-65999555D02*
X120281202Y-65696969D01*
G04 #@! TO.N,/B0*
X127254000Y-65295850D02*
X127254000Y-64770000D01*
X116514308Y-64884800D02*
X119660871Y-64884800D01*
X126146999Y-66928799D02*
X126882184Y-66193548D01*
X123932967Y-66928832D02*
X123464499Y-66460350D01*
X125040000Y-73231400D02*
X125040000Y-69601505D01*
X116136000Y-74038400D02*
X115725000Y-73627000D01*
X115314000Y-72634075D02*
X115314000Y-66192380D01*
X119660871Y-64884800D02*
G75*
G02*
X123464502Y-66460347I29J-5379000D01*
G01*
X127254000Y-65295850D02*
G75*
G02*
X126882161Y-66193525I-1269600J50D01*
G01*
X115313999Y-65872363D02*
G75*
G02*
X115514724Y-65387525I686001J-37D01*
G01*
X115314000Y-72634075D02*
G75*
G03*
X115724986Y-73627014I1404900J-25D01*
G01*
X116514308Y-64884800D02*
G75*
G03*
X115665493Y-65236593I-8J-1199900D01*
G01*
X125040000Y-69601505D02*
G75*
G02*
X126147007Y-66928807I3779900J5D01*
G01*
X123932967Y-66928832D02*
G75*
G03*
X126147033Y-66928832I1107033J1106932D01*
G01*
X123932967Y-66928832D02*
G75*
G02*
X125039993Y-69601505I-2672767J-2672668D01*
G01*
G04 #@! TO.N,/3V6*
X116334000Y-70494800D02*
X116494000Y-70654750D01*
X127780000Y-74404150D02*
X127254044Y-74930044D01*
X128306000Y-73134529D02*
X128306000Y-66866556D01*
X116388000Y-75690800D02*
X116521000Y-75557600D01*
X126202178Y-75981878D02*
X121988411Y-80195871D01*
X128103000Y-66376300D02*
X127900000Y-66173200D01*
X115344000Y-80418200D02*
X114300000Y-81462000D01*
X116654000Y-75236168D02*
X116654000Y-71040938D01*
X116388000Y-77898102D02*
X116388000Y-75690800D01*
X120800000Y-80945300D02*
X120800000Y-81462000D01*
X127780000Y-74404150D02*
G75*
G03*
X128306009Y-73134529I-1269300J1269650D01*
G01*
X116654000Y-75236168D02*
G75*
G02*
X116521013Y-75557613I-454900J-32D01*
G01*
X116494000Y-70654750D02*
G75*
G02*
X116653963Y-71040938I-386100J-386150D01*
G01*
X120800000Y-80945300D02*
G75*
G02*
X121239000Y-80506300I439000J0D01*
G01*
X121239000Y-80506300D02*
G75*
G03*
X121988412Y-80195872I0J1059800D01*
G01*
X128103000Y-66376300D02*
G75*
G02*
X128306030Y-66866556I-490500J-490300D01*
G01*
X116388000Y-77898102D02*
G75*
G02*
X115343996Y-80418196I-3563600J2D01*
G01*
G04 #@! TO.N,Net-(U1-PB3)*
X95847400Y-70152300D02*
X98731023Y-73035923D01*
X101445750Y-74160400D02*
X103036000Y-74160400D01*
X108845000Y-73100700D02*
X104844073Y-73100700D01*
X103565500Y-73630550D02*
X103036000Y-74160400D01*
X103565500Y-73630550D02*
G75*
G02*
X104844073Y-73100687I1278600J-1277750D01*
G01*
X98731023Y-73035923D02*
G75*
G03*
X101445750Y-74160436I2714777J2714723D01*
G01*
G04 #@! TO.N,/TX*
X119713466Y-65235800D02*
X116881411Y-65235800D01*
X126382839Y-70721273D02*
X127254000Y-69850000D01*
X125467999Y-73539249D02*
X125355086Y-73652093D01*
X124732006Y-73651999D02*
X124618000Y-73537899D01*
X124375000Y-71542550D02*
X124375000Y-72950904D01*
X121446303Y-66861960D02*
X123135988Y-68551497D01*
X125710000Y-72345800D02*
X125710000Y-72955266D01*
X115816000Y-65860300D02*
X116128000Y-65548050D01*
X125043500Y-73781100D02*
G75*
G03*
X125355089Y-73652096I0J440800D01*
G01*
X125710000Y-72345800D02*
G75*
G02*
X126382834Y-70721268I2297600J0D01*
G01*
X124375000Y-72950904D02*
G75*
G03*
X124617997Y-73537902I830500J4D01*
G01*
X116128000Y-65548050D02*
G75*
G02*
X116881411Y-65235820I753400J-752850D01*
G01*
X125467999Y-73539249D02*
G75*
G03*
X125709981Y-72955266I-583599J583949D01*
G01*
X124732006Y-73651999D02*
G75*
G03*
X125043500Y-73781110I311494J311199D01*
G01*
X119895321Y-65311122D02*
G75*
G03*
X119713466Y-65235826I-181821J-181878D01*
G01*
X124375000Y-71542550D02*
G75*
G03*
X123135963Y-68551522I-4229800J-50D01*
G01*
G04 #@! TO.N,/RX*
X119161000Y-75341200D02*
X119161000Y-66427630D01*
X120266000Y-78008650D02*
X121371000Y-79113500D01*
X121371000Y-79113500D02*
X126956914Y-73527395D01*
X119556000Y-65754000D02*
X119358500Y-65951250D01*
X127254000Y-72810150D02*
X127254000Y-72390000D01*
X119161000Y-66427630D02*
G75*
G02*
X119358480Y-65951230I673300J30D01*
G01*
X126956914Y-73527395D02*
G75*
G03*
X127254022Y-72810150I-717314J717295D01*
G01*
X120266000Y-78008650D02*
G75*
G02*
X119161004Y-75341200I2667100J2667450D01*
G01*
G04 #@! TO.N,Net-(U1-PA0)*
X120248500Y-67904550D02*
X119697000Y-67352900D01*
X120800000Y-69236244D02*
X120800000Y-76962000D01*
X120248500Y-67904550D02*
G75*
G02*
X120799956Y-69236244I-1332100J-1331650D01*
G01*
G04 #@! TD*
G04 #@! TA.AperFunction,Conductor*
G04 #@! TO.N,GND*
G36*
X120101389Y-65813268D02*
G01*
X120140251Y-65839568D01*
X120425904Y-66125192D01*
X120465499Y-66164783D01*
X121269258Y-66968468D01*
X121269262Y-66968473D01*
X122400372Y-68099483D01*
X122966016Y-68665077D01*
X122966017Y-68665078D01*
X122992301Y-68691360D01*
X122996041Y-68695266D01*
X123228063Y-68948453D01*
X123235017Y-68956740D01*
X123442432Y-69227029D01*
X123448637Y-69235890D01*
X123453863Y-69244092D01*
X123613599Y-69494810D01*
X123631704Y-69523226D01*
X123637114Y-69532596D01*
X123794442Y-69834803D01*
X123799014Y-69844606D01*
X123929405Y-70159375D01*
X123933105Y-70169542D01*
X124035561Y-70494472D01*
X124038361Y-70504921D01*
X124112105Y-70837541D01*
X124113984Y-70848195D01*
X124158458Y-71185985D01*
X124159401Y-71196762D01*
X124174382Y-71539847D01*
X124174500Y-71545256D01*
X124174500Y-72950908D01*
X124174497Y-73032005D01*
X124174497Y-73032006D01*
X124199328Y-73188865D01*
X124199856Y-73192201D01*
X124200976Y-73195649D01*
X124249554Y-73345243D01*
X124249952Y-73346466D01*
X124323551Y-73491000D01*
X124418844Y-73622250D01*
X124418846Y-73622252D01*
X124418850Y-73622256D01*
X124465699Y-73669141D01*
X124465713Y-73669154D01*
X124465726Y-73669167D01*
X124618362Y-73821928D01*
X124618367Y-73821930D01*
X124634810Y-73838385D01*
X124634813Y-73838387D01*
X124634816Y-73838390D01*
X124692776Y-73877143D01*
X124739803Y-73908587D01*
X124739806Y-73908588D01*
X124739809Y-73908590D01*
X124822914Y-73943033D01*
X124856479Y-73956944D01*
X124980349Y-73981597D01*
X125003614Y-73981598D01*
X125003619Y-73981600D01*
X125043501Y-73981600D01*
X125106637Y-73981602D01*
X125230485Y-73956977D01*
X125347153Y-73908673D01*
X125452161Y-73838544D01*
X125479637Y-73811083D01*
X125496815Y-73793915D01*
X125496816Y-73793914D01*
X125542478Y-73748278D01*
X125542481Y-73748275D01*
X125598993Y-73691799D01*
X125598993Y-73691798D01*
X125609732Y-73681066D01*
X125620435Y-73670369D01*
X125620438Y-73670367D01*
X125648146Y-73642675D01*
X125648155Y-73642663D01*
X125666872Y-73623957D01*
X125761879Y-73493261D01*
X125835261Y-73349308D01*
X125836120Y-73346667D01*
X125873288Y-73232322D01*
X125885211Y-73195643D01*
X125908246Y-73050262D01*
X125910497Y-73036057D01*
X125910497Y-73032001D01*
X125910497Y-73013513D01*
X125910500Y-73013501D01*
X125910500Y-72349279D01*
X125910695Y-72342327D01*
X125923294Y-72117956D01*
X125924848Y-72104167D01*
X125961903Y-71886056D01*
X125964991Y-71872518D01*
X126026241Y-71659902D01*
X126030818Y-71646820D01*
X126115484Y-71442399D01*
X126121504Y-71429896D01*
X126228515Y-71236256D01*
X126235909Y-71224489D01*
X126363923Y-71044050D01*
X126372570Y-71033206D01*
X126522319Y-70865617D01*
X126527076Y-70860584D01*
X126552822Y-70834836D01*
X126552822Y-70834835D01*
X126564520Y-70823136D01*
X126570255Y-70817400D01*
X126570260Y-70817395D01*
X126668491Y-70719151D01*
X126729812Y-70685662D01*
X126799504Y-70690641D01*
X126803631Y-70692265D01*
X126803769Y-70692322D01*
X126976749Y-70763973D01*
X127160379Y-70800499D01*
X127160383Y-70800500D01*
X127160384Y-70800500D01*
X127347617Y-70800500D01*
X127347618Y-70800499D01*
X127531251Y-70763973D01*
X127704231Y-70692322D01*
X127859908Y-70588302D01*
X127868704Y-70579506D01*
X127893819Y-70554392D01*
X127955142Y-70520907D01*
X128024834Y-70525891D01*
X128080767Y-70567763D01*
X128105184Y-70633227D01*
X128105500Y-70642073D01*
X128105500Y-71597927D01*
X128085815Y-71664966D01*
X128033011Y-71710721D01*
X127963853Y-71720665D01*
X127900297Y-71691640D01*
X127893819Y-71685608D01*
X127859911Y-71651700D01*
X127859907Y-71651697D01*
X127704237Y-71547681D01*
X127704228Y-71547676D01*
X127531251Y-71476027D01*
X127531243Y-71476025D01*
X127347620Y-71439500D01*
X127347616Y-71439500D01*
X127160384Y-71439500D01*
X127160379Y-71439500D01*
X126976756Y-71476025D01*
X126976748Y-71476027D01*
X126803771Y-71547676D01*
X126803762Y-71547681D01*
X126648092Y-71651697D01*
X126648088Y-71651700D01*
X126515700Y-71784088D01*
X126515697Y-71784092D01*
X126411681Y-71939762D01*
X126411676Y-71939771D01*
X126340027Y-72112748D01*
X126340025Y-72112756D01*
X126303500Y-72296379D01*
X126303500Y-72483620D01*
X126340025Y-72667243D01*
X126340027Y-72667251D01*
X126411676Y-72840228D01*
X126411681Y-72840237D01*
X126515697Y-72995907D01*
X126515700Y-72995911D01*
X126648088Y-73128299D01*
X126648092Y-73128302D01*
X126776849Y-73214335D01*
X126821654Y-73267947D01*
X126830361Y-73337272D01*
X126800207Y-73400299D01*
X126795641Y-73405117D01*
X121523709Y-78677229D01*
X121496776Y-78691935D01*
X121470966Y-78708525D01*
X121465640Y-78708937D01*
X121462386Y-78710715D01*
X121436032Y-78713549D01*
X121425777Y-78713549D01*
X121423727Y-78713000D01*
X121318273Y-78713000D01*
X121316203Y-78713554D01*
X121305933Y-78713555D01*
X121279885Y-78705908D01*
X121253065Y-78701723D01*
X121244061Y-78695391D01*
X121238892Y-78693874D01*
X121234193Y-78688452D01*
X121218252Y-78677242D01*
X121126267Y-78585270D01*
X120845046Y-78304087D01*
X120557475Y-78016555D01*
X120523986Y-77955234D01*
X120528965Y-77885542D01*
X120570833Y-77829606D01*
X120636296Y-77805185D01*
X120669340Y-77807250D01*
X120715837Y-77816499D01*
X120715838Y-77816500D01*
X120715839Y-77816500D01*
X120884162Y-77816500D01*
X120884163Y-77816499D01*
X121049249Y-77783662D01*
X121204758Y-77719248D01*
X121344712Y-77625734D01*
X121463734Y-77506712D01*
X121557248Y-77366758D01*
X121621662Y-77211249D01*
X121654500Y-77046161D01*
X121654500Y-76877839D01*
X121621662Y-76712751D01*
X121557248Y-76557242D01*
X121557247Y-76557241D01*
X121557244Y-76557235D01*
X121463734Y-76417288D01*
X121463731Y-76417284D01*
X121344715Y-76298268D01*
X121344711Y-76298265D01*
X121204764Y-76204755D01*
X121204754Y-76204750D01*
X121077047Y-76151852D01*
X121022644Y-76108011D01*
X121000579Y-76041717D01*
X121000500Y-76037291D01*
X121000500Y-69159742D01*
X121000501Y-69119226D01*
X120974302Y-68886661D01*
X120922233Y-68658492D01*
X120844948Y-68437585D01*
X120743421Y-68226718D01*
X120743150Y-68226287D01*
X120676189Y-68119697D01*
X120618925Y-68028542D01*
X120473028Y-67845549D01*
X120390294Y-67762794D01*
X120362097Y-67734590D01*
X120133245Y-67505675D01*
X120099769Y-67444350D01*
X120098499Y-67413754D01*
X120097500Y-67413754D01*
X120097500Y-67300175D01*
X120097500Y-67300173D01*
X120070207Y-67198313D01*
X120017480Y-67106987D01*
X119942913Y-67032420D01*
X119875025Y-66993225D01*
X119851589Y-66979694D01*
X119851588Y-66979693D01*
X119851587Y-66979693D01*
X119749727Y-66952400D01*
X119644273Y-66952400D01*
X119542413Y-66979693D01*
X119534903Y-66982804D01*
X119533779Y-66980091D01*
X119479553Y-66993225D01*
X119413535Y-66970348D01*
X119370365Y-66915410D01*
X119361500Y-66869368D01*
X119361500Y-66433724D01*
X119362098Y-66421563D01*
X119364407Y-66398131D01*
X119369399Y-66347481D01*
X119374145Y-66323638D01*
X119393998Y-66258249D01*
X119403309Y-66235793D01*
X119411759Y-66219999D01*
X119460743Y-66170177D01*
X119521092Y-66154500D01*
X119608725Y-66154500D01*
X119608727Y-66154500D01*
X119710587Y-66127207D01*
X119801913Y-66074480D01*
X119876480Y-65999913D01*
X119929207Y-65908587D01*
X119932803Y-65895163D01*
X119969167Y-65835504D01*
X120032013Y-65804974D01*
X120101389Y-65813268D01*
G37*
G04 #@! TD.AperFunction*
G04 #@! TA.AperFunction,Conductor*
G36*
X119534291Y-67724472D02*
G01*
X119534903Y-67722996D01*
X119542406Y-67726103D01*
X119542413Y-67726107D01*
X119644273Y-67753400D01*
X119644275Y-67753400D01*
X119757854Y-67753400D01*
X119757854Y-67755804D01*
X119814799Y-67764676D01*
X119849659Y-67789189D01*
X120078508Y-68018100D01*
X120078510Y-68018102D01*
X120103844Y-68043444D01*
X120109387Y-68049363D01*
X120147844Y-68093227D01*
X120246460Y-68205705D01*
X120256331Y-68218572D01*
X120369572Y-68388086D01*
X120377680Y-68402132D01*
X120467837Y-68584991D01*
X120474041Y-68599973D01*
X120539558Y-68793013D01*
X120543755Y-68808678D01*
X120583520Y-69008624D01*
X120585637Y-69024702D01*
X120599235Y-69232200D01*
X120599500Y-69240309D01*
X120599500Y-76037291D01*
X120579815Y-76104330D01*
X120527011Y-76150085D01*
X120522953Y-76151852D01*
X120395245Y-76204750D01*
X120395235Y-76204755D01*
X120255288Y-76298265D01*
X120255284Y-76298268D01*
X120136268Y-76417284D01*
X120136265Y-76417288D01*
X120042755Y-76557235D01*
X120042750Y-76557244D01*
X119978338Y-76712750D01*
X119978336Y-76712758D01*
X119950104Y-76854690D01*
X119935763Y-76882104D01*
X119923282Y-76910436D01*
X119919705Y-76912802D01*
X119917719Y-76916601D01*
X119890825Y-76931915D01*
X119865016Y-76948996D01*
X119860729Y-76949053D01*
X119857004Y-76951175D01*
X119826094Y-76949518D01*
X119795153Y-76949934D01*
X119791516Y-76947665D01*
X119787234Y-76947436D01*
X119762123Y-76929328D01*
X119735873Y-76912952D01*
X119732640Y-76908067D01*
X119730562Y-76906569D01*
X119716394Y-76883520D01*
X119636021Y-76713602D01*
X119631364Y-76702359D01*
X119529354Y-76417288D01*
X119517368Y-76383795D01*
X119513837Y-76372153D01*
X119509472Y-76354728D01*
X119431617Y-76043942D01*
X119429248Y-76032036D01*
X119379595Y-75697333D01*
X119378402Y-75685222D01*
X119376085Y-75638072D01*
X119363418Y-75380231D01*
X119361649Y-75344232D01*
X119361500Y-75338147D01*
X119361500Y-67836431D01*
X119381185Y-67769392D01*
X119433989Y-67723637D01*
X119503147Y-67713693D01*
X119534291Y-67724472D01*
G37*
G04 #@! TD.AperFunction*
G04 #@! TA.AperFunction,Conductor*
G36*
X126217076Y-67257634D02*
G01*
X126274998Y-67296708D01*
X126302600Y-67360894D01*
X126303500Y-67375803D01*
X126303500Y-67403620D01*
X126340025Y-67587243D01*
X126340027Y-67587251D01*
X126411676Y-67760228D01*
X126411681Y-67760237D01*
X126515697Y-67915907D01*
X126515700Y-67915911D01*
X126648088Y-68048299D01*
X126648092Y-68048302D01*
X126803762Y-68152318D01*
X126803768Y-68152321D01*
X126803769Y-68152322D01*
X126976749Y-68223973D01*
X127160379Y-68260499D01*
X127160383Y-68260500D01*
X127160384Y-68260500D01*
X127347617Y-68260500D01*
X127347618Y-68260499D01*
X127531251Y-68223973D01*
X127704231Y-68152322D01*
X127859908Y-68048302D01*
X127864766Y-68043444D01*
X127893819Y-68014392D01*
X127955142Y-67980907D01*
X128024834Y-67985891D01*
X128080767Y-68027763D01*
X128105184Y-68093227D01*
X128105500Y-68102073D01*
X128105500Y-69057927D01*
X128085815Y-69124966D01*
X128033011Y-69170721D01*
X127963853Y-69180665D01*
X127900297Y-69151640D01*
X127893819Y-69145608D01*
X127859911Y-69111700D01*
X127859907Y-69111697D01*
X127704237Y-69007681D01*
X127704228Y-69007676D01*
X127531251Y-68936027D01*
X127531243Y-68936025D01*
X127347620Y-68899500D01*
X127347616Y-68899500D01*
X127160384Y-68899500D01*
X127160379Y-68899500D01*
X126976756Y-68936025D01*
X126976748Y-68936027D01*
X126803771Y-69007676D01*
X126803762Y-69007681D01*
X126648092Y-69111697D01*
X126648088Y-69111700D01*
X126515700Y-69244088D01*
X126515697Y-69244092D01*
X126411681Y-69399762D01*
X126411676Y-69399771D01*
X126340027Y-69572748D01*
X126340025Y-69572756D01*
X126303500Y-69756379D01*
X126303500Y-69943620D01*
X126340025Y-70127243D01*
X126340027Y-70127251D01*
X126411789Y-70300500D01*
X126413925Y-70320374D01*
X126420911Y-70339099D01*
X126417583Y-70354398D01*
X126419258Y-70369970D01*
X126410310Y-70387844D01*
X126406064Y-70407373D01*
X126389371Y-70429674D01*
X126387983Y-70432449D01*
X126384918Y-70435624D01*
X126384915Y-70435627D01*
X126269255Y-70551304D01*
X126269254Y-70551303D01*
X126266167Y-70554392D01*
X126241055Y-70579507D01*
X126210686Y-70609880D01*
X126141871Y-70678703D01*
X125966956Y-70898064D01*
X125817704Y-71135621D01*
X125817702Y-71135625D01*
X125695986Y-71388396D01*
X125603333Y-71653208D01*
X125540908Y-71926735D01*
X125509499Y-72205517D01*
X125509499Y-72205520D01*
X125509500Y-72305918D01*
X125509500Y-72835144D01*
X125503581Y-72855298D01*
X125502479Y-72876277D01*
X125493935Y-72888150D01*
X125489815Y-72902183D01*
X125473940Y-72915938D01*
X125461670Y-72932991D01*
X125448064Y-72938360D01*
X125437011Y-72947938D01*
X125416218Y-72950927D01*
X125396678Y-72958639D01*
X125382330Y-72955800D01*
X125367853Y-72957882D01*
X125348743Y-72949155D01*
X125328137Y-72945078D01*
X125308902Y-72930960D01*
X125304297Y-72928857D01*
X125299489Y-72924464D01*
X125298625Y-72923632D01*
X125285913Y-72910920D01*
X125284691Y-72910214D01*
X125278489Y-72904242D01*
X125264473Y-72879687D01*
X125247803Y-72856848D01*
X125246207Y-72847686D01*
X125243853Y-72843562D01*
X125244232Y-72836348D01*
X125240500Y-72814922D01*
X125240500Y-69604555D01*
X125240649Y-69598471D01*
X125245742Y-69494797D01*
X125257435Y-69256749D01*
X125258628Y-69244648D01*
X125308377Y-68909243D01*
X125310749Y-68897324D01*
X125393133Y-68568407D01*
X125396664Y-68556768D01*
X125439305Y-68437586D01*
X125510887Y-68237513D01*
X125515536Y-68226287D01*
X125660512Y-67919741D01*
X125666233Y-67909039D01*
X125840558Y-67618174D01*
X125847289Y-67608100D01*
X126049285Y-67335718D01*
X126056981Y-67326339D01*
X126087620Y-67292532D01*
X126147224Y-67256077D01*
X126217076Y-67257634D01*
G37*
G04 #@! TD.AperFunction*
G04 #@! TA.AperFunction,Conductor*
G36*
X120287606Y-65129574D02*
G01*
X120310954Y-65130116D01*
X120433248Y-65144591D01*
X120466150Y-65148486D01*
X120475766Y-65150009D01*
X120629022Y-65180493D01*
X120865041Y-65227441D01*
X120874477Y-65229706D01*
X121256489Y-65337447D01*
X121265719Y-65340446D01*
X121638099Y-65477828D01*
X121647069Y-65481544D01*
X121968870Y-65629899D01*
X122007504Y-65647710D01*
X122016177Y-65652129D01*
X122028826Y-65659213D01*
X122362461Y-65846062D01*
X122370763Y-65851150D01*
X122700751Y-66071647D01*
X122708628Y-66077370D01*
X122889549Y-66220000D01*
X123019336Y-66322319D01*
X123020298Y-66323077D01*
X123027700Y-66329398D01*
X123237652Y-66523482D01*
X123320948Y-66600483D01*
X123324455Y-66603856D01*
X123398547Y-66677950D01*
X123703392Y-66982804D01*
X123762988Y-67042401D01*
X123762989Y-67042403D01*
X123785990Y-67065405D01*
X123789044Y-67068459D01*
X123793239Y-67072866D01*
X124022973Y-67326347D01*
X124030693Y-67335753D01*
X124232680Y-67608107D01*
X124239438Y-67618222D01*
X124413753Y-67909058D01*
X124419481Y-67919774D01*
X124564447Y-68226287D01*
X124569101Y-68237521D01*
X124630712Y-68409717D01*
X124683330Y-68556776D01*
X124686862Y-68568421D01*
X124769246Y-68897324D01*
X124771620Y-68909259D01*
X124821370Y-69244651D01*
X124822563Y-69256760D01*
X124839351Y-69598471D01*
X124839500Y-69604556D01*
X124839500Y-72814922D01*
X124830438Y-72845781D01*
X124822818Y-72877042D01*
X124820475Y-72879710D01*
X124819815Y-72881961D01*
X124800970Y-72904760D01*
X124795125Y-72910320D01*
X124794087Y-72910920D01*
X124786101Y-72918905D01*
X124784970Y-72919982D01*
X124755211Y-72935281D01*
X124725858Y-72951310D01*
X124724258Y-72951195D01*
X124722832Y-72951929D01*
X124689545Y-72948713D01*
X124656166Y-72946326D01*
X124654881Y-72945364D01*
X124653286Y-72945210D01*
X124627018Y-72924505D01*
X124600233Y-72904454D01*
X124599672Y-72902951D01*
X124598413Y-72901959D01*
X124587507Y-72870334D01*
X124575816Y-72838990D01*
X124575714Y-72836138D01*
X124575634Y-72835906D01*
X124575696Y-72835648D01*
X124575500Y-72830144D01*
X124575500Y-71349105D01*
X124563115Y-71207559D01*
X124541778Y-70963696D01*
X124474593Y-70582691D01*
X124467332Y-70555596D01*
X124374456Y-70208998D01*
X124374450Y-70208980D01*
X124277861Y-69943620D01*
X124242125Y-69845442D01*
X124078612Y-69494810D01*
X123885160Y-69159764D01*
X123875247Y-69145608D01*
X123742991Y-68956740D01*
X123663242Y-68842855D01*
X123414547Y-68546494D01*
X123414545Y-68546492D01*
X123414540Y-68546486D01*
X123277758Y-68409717D01*
X123277757Y-68409716D01*
X123249555Y-68381516D01*
X123249553Y-68381515D01*
X123242481Y-68374443D01*
X123242480Y-68374442D01*
X121549668Y-66681777D01*
X121549654Y-66681766D01*
X121525162Y-66657276D01*
X120771230Y-65903413D01*
X120771228Y-65903410D01*
X120451040Y-65583253D01*
X120451035Y-65583249D01*
X120450999Y-65583213D01*
X120210587Y-65342823D01*
X120208670Y-65340905D01*
X120192015Y-65310377D01*
X120175218Y-65279615D01*
X120175219Y-65279590D01*
X120175208Y-65279569D01*
X120176909Y-65255914D01*
X120175039Y-65255914D01*
X120175039Y-65255912D01*
X120176909Y-65255912D01*
X120177655Y-65245537D01*
X120180202Y-65209923D01*
X120180217Y-65209902D01*
X120180219Y-65209880D01*
X120200619Y-65182650D01*
X120222074Y-65153990D01*
X120222096Y-65153981D01*
X120222111Y-65153962D01*
X120254471Y-65141906D01*
X120287538Y-65129573D01*
X120287574Y-65129573D01*
X120287585Y-65129570D01*
X120287606Y-65129574D01*
G37*
G04 #@! TD.AperFunction*
G04 #@! TA.AperFunction,Conductor*
G36*
X129382539Y-61588185D02*
G01*
X129428294Y-61640989D01*
X129439500Y-61692500D01*
X129439500Y-82833500D01*
X129419815Y-82900539D01*
X129367011Y-82946294D01*
X129315500Y-82957500D01*
X80304000Y-82957500D01*
X80236961Y-82937815D01*
X80191206Y-82885011D01*
X80180000Y-82833500D01*
X80180000Y-81377834D01*
X113445500Y-81377834D01*
X113445500Y-81546165D01*
X113478336Y-81711241D01*
X113478338Y-81711249D01*
X113542750Y-81866755D01*
X113542755Y-81866764D01*
X113636265Y-82006711D01*
X113636268Y-82006715D01*
X113755284Y-82125731D01*
X113755288Y-82125734D01*
X113895235Y-82219244D01*
X113895244Y-82219249D01*
X113930472Y-82233840D01*
X114050751Y-82283662D01*
X114215834Y-82316499D01*
X114215838Y-82316500D01*
X114215839Y-82316500D01*
X114384162Y-82316500D01*
X114384163Y-82316499D01*
X114549249Y-82283662D01*
X114704758Y-82219248D01*
X114844712Y-82125734D01*
X114963734Y-82006712D01*
X115057248Y-81866758D01*
X115121662Y-81711249D01*
X115154500Y-81546161D01*
X115154500Y-81377839D01*
X115121662Y-81212751D01*
X115068798Y-81085128D01*
X115061330Y-81015659D01*
X115092605Y-80953180D01*
X115095664Y-80950009D01*
X115513965Y-80531790D01*
X115513965Y-80531788D01*
X115531407Y-80514350D01*
X115531408Y-80514348D01*
X115601995Y-80443775D01*
X115813320Y-80191972D01*
X116001891Y-79922706D01*
X116166274Y-79638028D01*
X116166280Y-79638016D01*
X116166282Y-79638012D01*
X116261437Y-79433978D01*
X116305217Y-79340105D01*
X116417662Y-79031205D01*
X116502754Y-78713680D01*
X116559845Y-78389945D01*
X116588499Y-78062467D01*
X116588500Y-77898102D01*
X116588500Y-77858220D01*
X116588500Y-76107276D01*
X116608185Y-76040237D01*
X116628880Y-76017741D01*
X116628166Y-76017027D01*
X116633913Y-76011280D01*
X116708480Y-75936713D01*
X116761207Y-75845387D01*
X116788500Y-75743527D01*
X116788500Y-75638073D01*
X116781150Y-75610643D01*
X116782811Y-75540795D01*
X116786338Y-75531157D01*
X116829366Y-75427168D01*
X116854506Y-75300660D01*
X116854500Y-75236169D01*
X116854500Y-75196287D01*
X116854500Y-71001056D01*
X116854500Y-70982702D01*
X116854498Y-70982688D01*
X116854498Y-70967391D01*
X116850397Y-70946783D01*
X116825796Y-70823130D01*
X116769497Y-70687242D01*
X116749016Y-70656598D01*
X116728130Y-70589926D01*
X116732336Y-70555601D01*
X116734500Y-70547527D01*
X116734500Y-70442073D01*
X116707207Y-70340213D01*
X116654480Y-70248887D01*
X116579913Y-70174320D01*
X116488587Y-70121593D01*
X116386727Y-70094300D01*
X116281273Y-70094300D01*
X116179413Y-70121593D01*
X116179410Y-70121594D01*
X116088085Y-70174321D01*
X116013521Y-70248885D01*
X115960794Y-70340210D01*
X115960793Y-70340213D01*
X115933500Y-70442073D01*
X115933500Y-70547527D01*
X115960793Y-70649387D01*
X116013520Y-70740713D01*
X116088087Y-70815280D01*
X116179413Y-70868007D01*
X116281273Y-70895300D01*
X116281275Y-70895300D01*
X116325580Y-70895300D01*
X116326315Y-70895515D01*
X116327052Y-70895309D01*
X116359778Y-70905341D01*
X116392619Y-70914985D01*
X116393120Y-70915563D01*
X116393853Y-70915788D01*
X116415990Y-70941957D01*
X116438374Y-70967789D01*
X116438647Y-70968739D01*
X116438978Y-70969131D01*
X116448519Y-71003111D01*
X116452439Y-71032879D01*
X116453500Y-71049068D01*
X116453500Y-73547245D01*
X116433815Y-73614284D01*
X116381011Y-73660039D01*
X116311853Y-73669983D01*
X116297408Y-73667020D01*
X116188728Y-73637900D01*
X116188727Y-73637900D01*
X116083273Y-73637900D01*
X116080552Y-73637900D01*
X116080002Y-73638105D01*
X116079062Y-73637900D01*
X116075146Y-73637900D01*
X116075146Y-73637046D01*
X116049355Y-73631422D01*
X116018355Y-73626585D01*
X116014396Y-73623800D01*
X116011736Y-73623220D01*
X115983492Y-73602056D01*
X115912452Y-73530947D01*
X115912450Y-73530944D01*
X115894611Y-73513088D01*
X115870280Y-73488733D01*
X115863686Y-73481593D01*
X115756520Y-73356006D01*
X115750569Y-73349033D01*
X115739148Y-73333299D01*
X115731546Y-73320885D01*
X115650704Y-73188862D01*
X115641882Y-73171536D01*
X115634386Y-73153427D01*
X115577103Y-73015038D01*
X115571099Y-72996544D01*
X115566099Y-72975706D01*
X115531585Y-72831850D01*
X115528545Y-72812643D01*
X115514882Y-72638931D01*
X115514500Y-72629208D01*
X115514500Y-66355741D01*
X115534185Y-66288702D01*
X115586989Y-66242947D01*
X115656147Y-66233003D01*
X115670577Y-66235962D01*
X115763273Y-66260800D01*
X115763276Y-66260800D01*
X115868725Y-66260800D01*
X115868727Y-66260800D01*
X115970587Y-66233507D01*
X116061913Y-66180780D01*
X116136480Y-66106213D01*
X116189207Y-66014887D01*
X116216500Y-65913027D01*
X116216500Y-65807573D01*
X116216500Y-65804644D01*
X116216240Y-65803948D01*
X116216500Y-65802750D01*
X116216500Y-65799445D01*
X116217218Y-65799445D01*
X116222904Y-65773255D01*
X116227737Y-65742227D01*
X116230493Y-65738303D01*
X116231066Y-65735669D01*
X116252201Y-65707412D01*
X116266395Y-65693207D01*
X116273521Y-65686614D01*
X116365598Y-65607915D01*
X116381333Y-65596475D01*
X116480398Y-65535730D01*
X116497739Y-65526890D01*
X116605102Y-65482393D01*
X116623607Y-65476377D01*
X116736609Y-65449233D01*
X116755821Y-65446189D01*
X116862908Y-65437756D01*
X116876548Y-65436683D01*
X116886281Y-65436300D01*
X116921293Y-65436300D01*
X119064899Y-65436300D01*
X119131938Y-65455985D01*
X119177693Y-65508789D01*
X119187637Y-65577947D01*
X119184674Y-65592393D01*
X119155500Y-65701273D01*
X119155500Y-65806725D01*
X119156561Y-65814783D01*
X119153271Y-65815216D01*
X119151930Y-65869674D01*
X119134131Y-65904755D01*
X119087161Y-65969336D01*
X119087154Y-65969346D01*
X119024627Y-66091948D01*
X119024621Y-66091960D01*
X118982051Y-66222862D01*
X118960503Y-66358809D01*
X118960502Y-66377746D01*
X118960500Y-66377778D01*
X118960500Y-75514664D01*
X118990739Y-75860266D01*
X119050986Y-76201914D01*
X119050987Y-76201918D01*
X119140781Y-76537006D01*
X119140783Y-76537014D01*
X119140785Y-76537018D01*
X119157199Y-76582111D01*
X119259452Y-76863023D01*
X119259454Y-76863026D01*
X119406075Y-77177427D01*
X119494726Y-77330957D01*
X119579554Y-77477868D01*
X119778556Y-77762041D01*
X120001570Y-78027786D01*
X120088965Y-78115169D01*
X120088972Y-78115177D01*
X120096032Y-78122236D01*
X120934721Y-78960811D01*
X120968210Y-79022131D01*
X120969484Y-79052646D01*
X120970500Y-79052646D01*
X120970500Y-79060773D01*
X120970500Y-79166227D01*
X120997793Y-79268087D01*
X121050520Y-79359413D01*
X121125087Y-79433980D01*
X121216413Y-79486707D01*
X121318273Y-79514000D01*
X121318275Y-79514000D01*
X121423725Y-79514000D01*
X121423727Y-79514000D01*
X121525587Y-79486707D01*
X121616913Y-79433980D01*
X121691480Y-79359413D01*
X121744207Y-79268087D01*
X121771500Y-79166227D01*
X121771500Y-79060773D01*
X121771500Y-79052645D01*
X121773881Y-79052645D01*
X121782772Y-78995610D01*
X121807265Y-78960774D01*
X121817919Y-78950120D01*
X126106820Y-74661070D01*
X126168141Y-74627586D01*
X126237833Y-74632569D01*
X126293767Y-74674440D01*
X126318185Y-74739904D01*
X126316119Y-74772942D01*
X126303500Y-74836385D01*
X126303500Y-75023620D01*
X126340025Y-75207243D01*
X126340028Y-75207255D01*
X126411780Y-75380480D01*
X126419249Y-75449949D01*
X126387974Y-75512428D01*
X126384899Y-75515615D01*
X126095671Y-75804834D01*
X126095670Y-75804833D01*
X126062625Y-75837880D01*
X126056530Y-75843975D01*
X126032201Y-75868303D01*
X126032202Y-75868304D01*
X121850068Y-80050660D01*
X121842919Y-80057269D01*
X121751518Y-80135338D01*
X121735774Y-80146776D01*
X121637447Y-80207033D01*
X121620111Y-80215867D01*
X121513565Y-80260002D01*
X121495059Y-80266016D01*
X121382918Y-80292940D01*
X121363700Y-80295984D01*
X121253593Y-80304651D01*
X121243851Y-80305418D01*
X121234122Y-80305800D01*
X121166944Y-80305800D01*
X121026445Y-80337869D01*
X120896614Y-80400393D01*
X120896612Y-80400394D01*
X120783944Y-80490244D01*
X120689752Y-80608358D01*
X120687665Y-80606693D01*
X120644445Y-80644914D01*
X120591800Y-80656644D01*
X120082646Y-80656644D01*
X120082638Y-80656645D01*
X120053328Y-80662474D01*
X120020083Y-80684686D01*
X119997873Y-80717929D01*
X119997870Y-80717935D01*
X119992041Y-80747242D01*
X119992041Y-82165146D01*
X119992042Y-82165154D01*
X119997871Y-82194464D01*
X120020083Y-82227709D01*
X120036760Y-82238851D01*
X120053328Y-82249921D01*
X120053331Y-82249921D01*
X120053332Y-82249922D01*
X120063188Y-82251882D01*
X120082642Y-82255752D01*
X121499919Y-82255751D01*
X121529234Y-82249921D01*
X121562478Y-82227709D01*
X121584690Y-82194465D01*
X121590521Y-82165151D01*
X121590520Y-80747529D01*
X121610205Y-80680491D01*
X121663008Y-80634736D01*
X121676189Y-80629604D01*
X121722802Y-80614458D01*
X121899560Y-80524392D01*
X122060052Y-80407783D01*
X122084545Y-80383287D01*
X122084548Y-80383286D01*
X122101989Y-80365844D01*
X122101990Y-80365844D01*
X126032615Y-76435007D01*
X126093937Y-76401522D01*
X126163628Y-76406504D01*
X126219563Y-76448374D01*
X126243982Y-76513838D01*
X126229132Y-76582111D01*
X126220616Y-76595572D01*
X126099379Y-76762442D01*
X126002904Y-76951782D01*
X125937242Y-77153869D01*
X125937242Y-77153872D01*
X125904000Y-77363753D01*
X125904000Y-77576246D01*
X125937242Y-77786127D01*
X125937242Y-77786130D01*
X126002904Y-77988217D01*
X126099375Y-78177550D01*
X126138728Y-78231716D01*
X126771037Y-77599408D01*
X126788075Y-77662993D01*
X126853901Y-77777007D01*
X126946993Y-77870099D01*
X127061007Y-77935925D01*
X127124590Y-77952962D01*
X126492282Y-78585269D01*
X126492282Y-78585270D01*
X126546449Y-78624624D01*
X126735782Y-78721095D01*
X126937870Y-78786757D01*
X127147754Y-78820000D01*
X127360246Y-78820000D01*
X127570127Y-78786757D01*
X127570130Y-78786757D01*
X127772217Y-78721095D01*
X127961554Y-78624622D01*
X128015716Y-78585270D01*
X128015717Y-78585270D01*
X127383408Y-77952962D01*
X127446993Y-77935925D01*
X127561007Y-77870099D01*
X127654099Y-77777007D01*
X127719925Y-77662993D01*
X127736962Y-77599408D01*
X128369270Y-78231717D01*
X128369270Y-78231716D01*
X128408622Y-78177554D01*
X128505095Y-77988217D01*
X128570757Y-77786130D01*
X128570757Y-77786127D01*
X128604000Y-77576246D01*
X128604000Y-77363753D01*
X128570757Y-77153872D01*
X128570757Y-77153869D01*
X128505095Y-76951782D01*
X128408624Y-76762449D01*
X128369270Y-76708282D01*
X128369269Y-76708282D01*
X127736962Y-77340590D01*
X127719925Y-77277007D01*
X127654099Y-77162993D01*
X127561007Y-77069901D01*
X127446993Y-77004075D01*
X127383408Y-76987037D01*
X128015716Y-76354728D01*
X127961550Y-76315375D01*
X127772217Y-76218904D01*
X127570128Y-76153242D01*
X127368730Y-76121343D01*
X127305595Y-76091414D01*
X127268664Y-76032102D01*
X127269662Y-75962239D01*
X127308272Y-75904007D01*
X127363933Y-75877254D01*
X127531251Y-75843973D01*
X127704231Y-75772322D01*
X127859908Y-75668302D01*
X127992302Y-75535908D01*
X128096322Y-75380231D01*
X128167973Y-75207251D01*
X128204500Y-75023616D01*
X128204500Y-74836384D01*
X128167973Y-74652749D01*
X128096322Y-74479769D01*
X128096321Y-74479767D01*
X128093452Y-74474399D01*
X128095456Y-74473327D01*
X128077606Y-74416338D01*
X128096085Y-74348956D01*
X128104648Y-74336790D01*
X128140839Y-74291420D01*
X128260140Y-74101597D01*
X128357433Y-73899608D01*
X128431494Y-73687994D01*
X128481392Y-73469418D01*
X128505523Y-73255287D01*
X128506499Y-73246631D01*
X128506500Y-73134529D01*
X128506500Y-66829016D01*
X128506501Y-66796219D01*
X128499168Y-66749904D01*
X128484504Y-66657286D01*
X128484503Y-66657283D01*
X128484502Y-66657276D01*
X128441044Y-66523482D01*
X128403870Y-66450498D01*
X128377199Y-66398133D01*
X128377197Y-66398129D01*
X128322140Y-66322319D01*
X128298673Y-66256508D01*
X128299534Y-66233261D01*
X128300500Y-66225926D01*
X128300500Y-66120475D01*
X128300500Y-66120473D01*
X128273207Y-66018613D01*
X128220480Y-65927287D01*
X128168735Y-65875542D01*
X128135250Y-65814219D01*
X128140234Y-65744527D01*
X128168735Y-65700180D01*
X128176455Y-65692459D01*
X128176455Y-65692457D01*
X128176457Y-65692457D01*
X128198669Y-65659213D01*
X128204500Y-65629899D01*
X128204499Y-63910102D01*
X128198669Y-63880787D01*
X128198668Y-63880785D01*
X128176457Y-63847542D01*
X128143214Y-63825332D01*
X128143215Y-63825332D01*
X128143213Y-63825331D01*
X128143211Y-63825330D01*
X128143208Y-63825329D01*
X128113901Y-63819500D01*
X126394105Y-63819500D01*
X126394097Y-63819501D01*
X126364787Y-63825330D01*
X126331542Y-63847542D01*
X126309332Y-63880785D01*
X126309329Y-63880791D01*
X126303500Y-63910098D01*
X126303500Y-65629894D01*
X126303501Y-65629902D01*
X126309330Y-65659212D01*
X126331542Y-65692457D01*
X126348219Y-65703599D01*
X126364787Y-65714669D01*
X126364790Y-65714669D01*
X126364791Y-65714670D01*
X126374647Y-65716630D01*
X126394101Y-65720500D01*
X126752763Y-65720499D01*
X126760167Y-65722673D01*
X126767781Y-65721412D01*
X126793217Y-65732377D01*
X126819801Y-65740183D01*
X126824856Y-65746016D01*
X126831943Y-65749072D01*
X126847413Y-65772049D01*
X126865556Y-65792987D01*
X126866654Y-65800626D01*
X126870965Y-65807029D01*
X126871557Y-65834725D01*
X126875500Y-65862146D01*
X126872331Y-65870926D01*
X126872459Y-65876883D01*
X126858487Y-65909293D01*
X126854436Y-65915903D01*
X126843005Y-65931636D01*
X126743569Y-66048071D01*
X126736960Y-66055221D01*
X126033422Y-66758823D01*
X126033417Y-66758826D01*
X126033418Y-66758827D01*
X126008656Y-66783591D01*
X126001506Y-66790200D01*
X125849764Y-66919810D01*
X125834022Y-66931248D01*
X125668028Y-67032977D01*
X125650692Y-67041811D01*
X125470827Y-67116321D01*
X125452320Y-67122335D01*
X125263022Y-67167786D01*
X125243803Y-67170831D01*
X125049714Y-67186110D01*
X125030255Y-67186110D01*
X124836170Y-67170837D01*
X124816952Y-67167793D01*
X124627650Y-67122347D01*
X124609144Y-67116334D01*
X124429279Y-67041832D01*
X124411940Y-67032998D01*
X124410998Y-67032421D01*
X124330033Y-66982804D01*
X124245942Y-66931272D01*
X124230200Y-66919834D01*
X124078452Y-66790226D01*
X124071304Y-66783618D01*
X124046543Y-66758857D01*
X123578075Y-66290375D01*
X123451258Y-66163554D01*
X123451255Y-66163552D01*
X123117864Y-65878800D01*
X122763166Y-65621090D01*
X122763159Y-65621086D01*
X122763154Y-65621082D01*
X122389315Y-65391988D01*
X122389307Y-65391984D01*
X122389297Y-65391978D01*
X121998664Y-65192935D01*
X121998649Y-65192929D01*
X121984661Y-65187135D01*
X121738814Y-65085299D01*
X121593584Y-65025141D01*
X121593583Y-65025140D01*
X121593579Y-65025139D01*
X121264023Y-64918058D01*
X121176591Y-64889649D01*
X121176588Y-64889648D01*
X121176587Y-64889648D01*
X120750250Y-64787291D01*
X120750244Y-64787290D01*
X120317205Y-64718702D01*
X120317199Y-64718701D01*
X120317197Y-64718701D01*
X120317193Y-64718700D01*
X120317187Y-64718700D01*
X119880102Y-64684300D01*
X119880097Y-64684300D01*
X119700753Y-64684300D01*
X116474426Y-64684300D01*
X116466838Y-64684300D01*
X116466816Y-64684301D01*
X116422483Y-64684302D01*
X116422467Y-64684303D01*
X116240384Y-64708287D01*
X116240366Y-64708290D01*
X116062972Y-64755849D01*
X115893290Y-64826176D01*
X115734257Y-64918055D01*
X115734251Y-64918059D01*
X115588576Y-65029922D01*
X115588571Y-65029926D01*
X115551875Y-65066650D01*
X115551857Y-65066670D01*
X115551856Y-65066671D01*
X115533242Y-65085300D01*
X115523667Y-65094881D01*
X115523668Y-65094882D01*
X115513261Y-65105295D01*
X115513258Y-65105299D01*
X115388951Y-65229711D01*
X115368163Y-65250516D01*
X115368159Y-65250519D01*
X115323595Y-65295116D01*
X115323588Y-65295124D01*
X115241657Y-65407971D01*
X115178371Y-65532252D01*
X115135299Y-65664891D01*
X115113496Y-65802629D01*
X115113496Y-65802630D01*
X115113499Y-65865461D01*
X115113499Y-65939153D01*
X115113500Y-66152498D01*
X115113500Y-72634081D01*
X115113495Y-72739238D01*
X115140928Y-72947737D01*
X115140931Y-72947755D01*
X115195328Y-73150901D01*
X115195329Y-73150905D01*
X115195331Y-73150910D01*
X115275768Y-73345236D01*
X115275771Y-73345243D01*
X115275772Y-73345244D01*
X115380861Y-73527400D01*
X115380872Y-73527416D01*
X115396075Y-73547245D01*
X115508831Y-73694315D01*
X115580096Y-73765643D01*
X115652772Y-73838390D01*
X115699808Y-73885471D01*
X115733263Y-73946811D01*
X115734536Y-73977546D01*
X115735500Y-73977546D01*
X115735500Y-73985673D01*
X115735500Y-74091127D01*
X115762793Y-74192987D01*
X115815520Y-74284313D01*
X115890087Y-74358880D01*
X115981413Y-74411607D01*
X116083273Y-74438900D01*
X116083275Y-74438900D01*
X116188725Y-74438900D01*
X116188727Y-74438900D01*
X116290587Y-74411607D01*
X116290589Y-74411605D01*
X116297407Y-74409779D01*
X116367256Y-74411442D01*
X116425119Y-74450605D01*
X116452623Y-74514833D01*
X116453500Y-74529554D01*
X116453500Y-75166300D01*
X116433815Y-75233339D01*
X116381011Y-75279094D01*
X116343083Y-75287344D01*
X116343333Y-75289239D01*
X116335273Y-75290300D01*
X116233413Y-75317593D01*
X116233410Y-75317594D01*
X116142085Y-75370321D01*
X116067521Y-75444885D01*
X116014794Y-75536210D01*
X116014793Y-75536213D01*
X115987500Y-75638073D01*
X115987500Y-75743527D01*
X116014793Y-75845387D01*
X116035065Y-75880500D01*
X116067521Y-75936714D01*
X116147834Y-76017027D01*
X116146149Y-76018711D01*
X116180187Y-76065323D01*
X116187500Y-76107276D01*
X116187500Y-77895049D01*
X116187351Y-77901134D01*
X116171600Y-78221698D01*
X116170407Y-78233810D01*
X116123755Y-78548270D01*
X116121380Y-78560206D01*
X116044131Y-78868566D01*
X116040598Y-78880213D01*
X115933488Y-79179523D01*
X115928830Y-79190766D01*
X115792896Y-79478135D01*
X115787158Y-79488868D01*
X115623708Y-79761527D01*
X115616946Y-79771645D01*
X115427560Y-80026962D01*
X115419838Y-80036370D01*
X115204291Y-80274145D01*
X115200094Y-80278552D01*
X114812172Y-80666401D01*
X114750846Y-80699881D01*
X114681155Y-80694890D01*
X114677047Y-80693273D01*
X114549253Y-80640339D01*
X114549241Y-80640336D01*
X114384165Y-80607500D01*
X114384161Y-80607500D01*
X114215839Y-80607500D01*
X114215834Y-80607500D01*
X114050758Y-80640336D01*
X114050750Y-80640338D01*
X113895244Y-80704750D01*
X113895235Y-80704755D01*
X113755288Y-80798265D01*
X113755284Y-80798268D01*
X113636268Y-80917284D01*
X113636265Y-80917288D01*
X113542755Y-81057235D01*
X113542750Y-81057244D01*
X113478338Y-81212750D01*
X113478336Y-81212758D01*
X113445500Y-81377834D01*
X80180000Y-81377834D01*
X80180000Y-76877834D01*
X113445500Y-76877834D01*
X113445500Y-77046165D01*
X113478336Y-77211241D01*
X113478338Y-77211249D01*
X113542750Y-77366755D01*
X113542755Y-77366764D01*
X113636265Y-77506711D01*
X113636268Y-77506715D01*
X113755284Y-77625731D01*
X113755288Y-77625734D01*
X113895235Y-77719244D01*
X113895241Y-77719247D01*
X113895242Y-77719248D01*
X114050751Y-77783662D01*
X114215834Y-77816499D01*
X114215838Y-77816500D01*
X114215839Y-77816500D01*
X114384162Y-77816500D01*
X114384163Y-77816499D01*
X114549249Y-77783662D01*
X114704758Y-77719248D01*
X114844712Y-77625734D01*
X114963734Y-77506712D01*
X115057248Y-77366758D01*
X115121662Y-77211249D01*
X115154500Y-77046161D01*
X115154500Y-76877839D01*
X115121662Y-76712751D01*
X115057248Y-76557242D01*
X115057247Y-76557241D01*
X115057244Y-76557235D01*
X114963734Y-76417288D01*
X114963731Y-76417284D01*
X114844715Y-76298268D01*
X114844711Y-76298265D01*
X114704764Y-76204755D01*
X114704755Y-76204750D01*
X114549249Y-76140338D01*
X114549241Y-76140336D01*
X114384165Y-76107500D01*
X114384161Y-76107500D01*
X114215839Y-76107500D01*
X114215834Y-76107500D01*
X114050758Y-76140336D01*
X114050750Y-76140338D01*
X113895244Y-76204750D01*
X113895235Y-76204755D01*
X113755288Y-76298265D01*
X113755284Y-76298268D01*
X113636268Y-76417284D01*
X113636265Y-76417288D01*
X113542755Y-76557235D01*
X113542750Y-76557244D01*
X113478338Y-76712750D01*
X113478336Y-76712758D01*
X113445500Y-76877834D01*
X80180000Y-76877834D01*
X80180000Y-70757651D01*
X82713700Y-70757651D01*
X82713700Y-70912548D01*
X82743915Y-71064447D01*
X82743918Y-71064459D01*
X82803186Y-71207546D01*
X82803193Y-71207559D01*
X82889240Y-71336336D01*
X82889243Y-71336340D01*
X82998759Y-71445856D01*
X82998763Y-71445859D01*
X83127540Y-71531906D01*
X83127553Y-71531913D01*
X83270640Y-71591181D01*
X83270645Y-71591183D01*
X83422551Y-71621399D01*
X83422554Y-71621400D01*
X83422556Y-71621400D01*
X83577446Y-71621400D01*
X83577447Y-71621399D01*
X83729355Y-71591183D01*
X83872453Y-71531910D01*
X84001237Y-71445859D01*
X84110759Y-71336337D01*
X84196810Y-71207553D01*
X84256083Y-71064455D01*
X84286300Y-70912544D01*
X84286300Y-70757656D01*
X84286300Y-70757653D01*
X84286299Y-70757651D01*
X84271979Y-70685662D01*
X84256083Y-70605745D01*
X84245215Y-70579507D01*
X84196813Y-70462653D01*
X84196806Y-70462640D01*
X84110759Y-70333863D01*
X84110756Y-70333859D01*
X84001237Y-70224340D01*
X83956649Y-70194548D01*
X83872458Y-70138293D01*
X83872446Y-70138286D01*
X83778984Y-70099573D01*
X95446900Y-70099573D01*
X95446900Y-70205027D01*
X95474193Y-70306887D01*
X95526920Y-70398213D01*
X95601487Y-70472780D01*
X95692813Y-70525507D01*
X95794673Y-70552800D01*
X95794675Y-70552800D01*
X95908254Y-70552800D01*
X95908254Y-70555183D01*
X95965279Y-70564072D01*
X96000118Y-70588568D01*
X98561047Y-73149497D01*
X98589248Y-73177698D01*
X98713966Y-73302416D01*
X98777832Y-73356006D01*
X98984189Y-73529161D01*
X99273133Y-73731481D01*
X99273140Y-73731485D01*
X99273151Y-73731493D01*
X99578645Y-73907871D01*
X99578659Y-73907877D01*
X99578662Y-73907879D01*
X99898336Y-74056945D01*
X99898341Y-74056946D01*
X99898350Y-74056951D01*
X100229830Y-74177600D01*
X100570565Y-74268900D01*
X100917960Y-74330155D01*
X101269371Y-74360899D01*
X101269372Y-74360900D01*
X101269373Y-74360900D01*
X101405868Y-74360900D01*
X102619524Y-74360900D01*
X102686563Y-74380585D01*
X102709058Y-74401280D01*
X102709773Y-74400566D01*
X102715520Y-74406313D01*
X102790087Y-74480880D01*
X102881413Y-74533607D01*
X102983273Y-74560900D01*
X102983275Y-74560900D01*
X103088725Y-74560900D01*
X103088727Y-74560900D01*
X103190587Y-74533607D01*
X103281913Y-74480880D01*
X103356480Y-74406313D01*
X103409207Y-74314987D01*
X103436500Y-74213127D01*
X103436500Y-74107673D01*
X103436500Y-74099545D01*
X103438834Y-74099545D01*
X103447746Y-74042352D01*
X103472212Y-74007541D01*
X103704461Y-73775139D01*
X103710355Y-73769614D01*
X103859294Y-73638920D01*
X103872143Y-73629055D01*
X104033484Y-73521192D01*
X104047500Y-73513096D01*
X104221545Y-73427224D01*
X104236512Y-73421022D01*
X104420283Y-73358612D01*
X104435917Y-73354422D01*
X104626259Y-73316543D01*
X104642318Y-73314428D01*
X104840016Y-73301465D01*
X104848129Y-73301200D01*
X104883955Y-73301200D01*
X108428524Y-73301200D01*
X108495563Y-73320885D01*
X108518058Y-73341580D01*
X108518773Y-73340866D01*
X108524520Y-73346613D01*
X108599087Y-73421180D01*
X108690413Y-73473907D01*
X108792273Y-73501200D01*
X108792275Y-73501200D01*
X108897725Y-73501200D01*
X108897727Y-73501200D01*
X108999587Y-73473907D01*
X109090913Y-73421180D01*
X109165480Y-73346613D01*
X109218207Y-73255287D01*
X109245500Y-73153427D01*
X109245500Y-73047973D01*
X109218207Y-72946113D01*
X109165480Y-72854787D01*
X109090913Y-72780220D01*
X108999587Y-72727493D01*
X108897727Y-72700200D01*
X108792273Y-72700200D01*
X108690413Y-72727493D01*
X108690410Y-72727494D01*
X108599085Y-72780221D01*
X108518773Y-72860534D01*
X108517088Y-72858849D01*
X108470477Y-72892887D01*
X108428524Y-72900200D01*
X104794207Y-72900200D01*
X104794191Y-72900201D01*
X104731260Y-72900202D01*
X104507040Y-72925476D01*
X104287061Y-72975706D01*
X104074101Y-73050258D01*
X104074092Y-73050262D01*
X103870823Y-73148199D01*
X103870811Y-73148206D01*
X103679800Y-73268288D01*
X103503424Y-73409027D01*
X103451879Y-73460600D01*
X103451880Y-73460601D01*
X103443078Y-73469410D01*
X103443071Y-73469417D01*
X103423677Y-73488822D01*
X103411310Y-73501199D01*
X103399174Y-73513343D01*
X103188573Y-73724080D01*
X103127260Y-73757585D01*
X103096854Y-73758859D01*
X103096854Y-73759900D01*
X102983273Y-73759900D01*
X102881413Y-73787193D01*
X102881410Y-73787194D01*
X102790085Y-73839921D01*
X102709773Y-73920234D01*
X102708088Y-73918549D01*
X102661477Y-73952587D01*
X102619524Y-73959900D01*
X101448802Y-73959900D01*
X101442717Y-73959751D01*
X101095175Y-73942676D01*
X101083066Y-73941483D01*
X100741902Y-73890877D01*
X100729966Y-73888503D01*
X100464184Y-73821928D01*
X100395391Y-73804696D01*
X100383749Y-73801164D01*
X100363481Y-73793912D01*
X100303005Y-73772273D01*
X100059019Y-73684972D01*
X100047778Y-73680316D01*
X99735979Y-73532848D01*
X99725251Y-73527113D01*
X99429424Y-73349801D01*
X99419306Y-73343041D01*
X99142269Y-73137577D01*
X99132863Y-73129857D01*
X98875050Y-72896189D01*
X98870642Y-72891992D01*
X96283668Y-70305018D01*
X96250183Y-70243695D01*
X96248911Y-70213154D01*
X96247900Y-70213154D01*
X96247900Y-70099575D01*
X96247900Y-70099573D01*
X96220607Y-69997713D01*
X96167880Y-69906387D01*
X96093313Y-69831820D01*
X96001987Y-69779093D01*
X95900127Y-69751800D01*
X95794673Y-69751800D01*
X95692813Y-69779093D01*
X95692810Y-69779094D01*
X95601485Y-69831821D01*
X95526921Y-69906385D01*
X95474194Y-69997710D01*
X95474193Y-69997713D01*
X95446900Y-70099573D01*
X83778984Y-70099573D01*
X83729359Y-70079018D01*
X83729347Y-70079015D01*
X83577447Y-70048800D01*
X83577444Y-70048800D01*
X83422556Y-70048800D01*
X83422553Y-70048800D01*
X83270652Y-70079015D01*
X83270640Y-70079018D01*
X83127553Y-70138286D01*
X83127540Y-70138293D01*
X82998763Y-70224340D01*
X82998759Y-70224343D01*
X82889243Y-70333859D01*
X82889240Y-70333863D01*
X82803193Y-70462640D01*
X82803186Y-70462653D01*
X82743918Y-70605740D01*
X82743915Y-70605752D01*
X82713700Y-70757651D01*
X80180000Y-70757651D01*
X80180000Y-65737969D01*
X82314200Y-65737969D01*
X82314200Y-65924630D01*
X82343397Y-66108972D01*
X82401077Y-66286491D01*
X82485811Y-66452791D01*
X82502282Y-66475462D01*
X83072721Y-65905023D01*
X83097626Y-65997969D01*
X83154474Y-66096431D01*
X83234869Y-66176826D01*
X83333331Y-66233674D01*
X83426275Y-66258578D01*
X82855835Y-66829016D01*
X82878504Y-66845486D01*
X83044808Y-66930222D01*
X83222327Y-66987902D01*
X83406670Y-67017100D01*
X83593330Y-67017100D01*
X83777672Y-66987902D01*
X83955191Y-66930222D01*
X84121496Y-66845486D01*
X84144162Y-66829017D01*
X84144162Y-66829016D01*
X83573724Y-66258577D01*
X83666669Y-66233674D01*
X83765131Y-66176826D01*
X83845526Y-66096431D01*
X83902374Y-65997969D01*
X83927278Y-65905024D01*
X84497716Y-66475462D01*
X84497717Y-66475462D01*
X84514186Y-66452795D01*
X84598922Y-66286491D01*
X84656602Y-66108972D01*
X84685800Y-65924630D01*
X84685800Y-65737969D01*
X84656602Y-65553629D01*
X84615523Y-65427200D01*
X84615522Y-65427198D01*
X84604655Y-65393753D01*
X91635000Y-65393753D01*
X91635000Y-65606246D01*
X91668242Y-65816127D01*
X91668242Y-65816130D01*
X91733904Y-66018217D01*
X91830375Y-66207550D01*
X91869728Y-66261716D01*
X92502037Y-65629408D01*
X92519075Y-65692993D01*
X92584901Y-65807007D01*
X92677993Y-65900099D01*
X92792007Y-65965925D01*
X92855590Y-65982962D01*
X92223282Y-66615269D01*
X92223282Y-66615270D01*
X92277449Y-66654624D01*
X92466782Y-66751095D01*
X92668870Y-66816757D01*
X92878754Y-66850000D01*
X93091246Y-66850000D01*
X93301127Y-66816757D01*
X93301130Y-66816757D01*
X93503217Y-66751095D01*
X93692554Y-66654622D01*
X93746716Y-66615270D01*
X93746717Y-66615270D01*
X93114408Y-65982962D01*
X93177993Y-65965925D01*
X93292007Y-65900099D01*
X93385099Y-65807007D01*
X93450925Y-65692993D01*
X93467962Y-65629408D01*
X94100270Y-66261717D01*
X94100270Y-66261716D01*
X94139622Y-66207554D01*
X94236095Y-66018217D01*
X94301757Y-65816130D01*
X94301758Y-65816125D01*
X94328027Y-65650268D01*
X94357956Y-65587133D01*
X94417267Y-65550201D01*
X94487130Y-65551199D01*
X94545363Y-65589808D01*
X94573477Y-65653772D01*
X94574500Y-65669665D01*
X94574500Y-66359894D01*
X94574501Y-66359902D01*
X94580330Y-66389212D01*
X94602542Y-66422457D01*
X94619219Y-66433599D01*
X94635787Y-66444669D01*
X94635790Y-66444669D01*
X94635791Y-66444670D01*
X94645647Y-66446630D01*
X94665101Y-66450500D01*
X96384898Y-66450499D01*
X96414213Y-66444669D01*
X96447457Y-66422457D01*
X96469669Y-66389213D01*
X96475500Y-66359899D01*
X96475499Y-64640102D01*
X96469669Y-64610787D01*
X96469668Y-64610785D01*
X96447457Y-64577542D01*
X96414214Y-64555332D01*
X96414215Y-64555332D01*
X96414213Y-64555331D01*
X96414211Y-64555330D01*
X96414208Y-64555329D01*
X96384901Y-64549500D01*
X94665105Y-64549500D01*
X94665097Y-64549501D01*
X94635787Y-64555330D01*
X94602542Y-64577542D01*
X94580332Y-64610785D01*
X94580329Y-64610791D01*
X94574500Y-64640098D01*
X94574500Y-65330332D01*
X94554815Y-65397371D01*
X94502011Y-65443126D01*
X94432853Y-65453070D01*
X94369297Y-65424045D01*
X94331523Y-65365267D01*
X94328027Y-65349730D01*
X94301757Y-65183872D01*
X94301757Y-65183869D01*
X94236095Y-64981782D01*
X94139624Y-64792449D01*
X94100270Y-64738282D01*
X94100269Y-64738282D01*
X93467962Y-65370590D01*
X93450925Y-65307007D01*
X93385099Y-65192993D01*
X93292007Y-65099901D01*
X93177993Y-65034075D01*
X93114409Y-65017037D01*
X93746716Y-64384728D01*
X93692550Y-64345375D01*
X93503217Y-64248904D01*
X93301129Y-64183242D01*
X93091246Y-64150000D01*
X92878754Y-64150000D01*
X92668872Y-64183242D01*
X92668869Y-64183242D01*
X92466782Y-64248904D01*
X92277439Y-64345380D01*
X92223282Y-64384727D01*
X92223282Y-64384728D01*
X92855591Y-65017037D01*
X92792007Y-65034075D01*
X92677993Y-65099901D01*
X92584901Y-65192993D01*
X92519075Y-65307007D01*
X92502037Y-65370591D01*
X91869728Y-64738282D01*
X91869727Y-64738282D01*
X91830380Y-64792439D01*
X91733904Y-64981782D01*
X91668242Y-65183869D01*
X91668242Y-65183872D01*
X91635000Y-65393753D01*
X84604655Y-65393753D01*
X84598922Y-65376108D01*
X84514186Y-65209804D01*
X84497716Y-65187136D01*
X84497716Y-65187135D01*
X83927277Y-65757574D01*
X83902374Y-65664631D01*
X83845526Y-65566169D01*
X83765131Y-65485774D01*
X83666669Y-65428926D01*
X83573724Y-65404022D01*
X84144162Y-64833582D01*
X84121491Y-64817111D01*
X83955191Y-64732377D01*
X83777672Y-64674697D01*
X83593330Y-64645500D01*
X83406670Y-64645500D01*
X83222327Y-64674697D01*
X83044808Y-64732377D01*
X82878502Y-64817114D01*
X82855836Y-64833582D01*
X82855835Y-64833582D01*
X83426275Y-65404021D01*
X83333331Y-65428926D01*
X83234869Y-65485774D01*
X83154474Y-65566169D01*
X83097626Y-65664631D01*
X83072722Y-65757575D01*
X82502282Y-65187135D01*
X82502282Y-65187136D01*
X82485814Y-65209802D01*
X82401077Y-65376108D01*
X82343397Y-65553627D01*
X82314200Y-65737969D01*
X80180000Y-65737969D01*
X80180000Y-61692500D01*
X80199685Y-61625461D01*
X80252489Y-61579706D01*
X80304000Y-61568500D01*
X129315500Y-61568500D01*
X129382539Y-61588185D01*
G37*
G04 #@! TD.AperFunction*
G04 #@! TD*
M02*
