G04 #@! TF.GenerationSoftware,KiCad,Pcbnew,10.0.1*
G04 #@! TF.CreationDate,2026-08-18T14:45:22-04:00*
G04 #@! TF.ProjectId,Nimbus,4e696d62-7573-42e6-9b69-6361645f7063,rev?*
G04 #@! TF.SameCoordinates,Original*
G04 #@! TF.FileFunction,Other,User*
%FSLAX46Y46*%
G04 Gerber Fmt 4.6, Leading zero omitted, Abs format (unit mm)*
G04 Created by KiCad (PCBNEW 10.0.1) date 2026-08-18 14:45:22*
%MOMM*%
%LPD*%
G01*
G04 APERTURE LIST*
%ADD10C,0.050000*%
%ADD11C,0.025400*%
G04 APERTURE END LIST*
G04 #@! TO.C,C3*
D10*
X107180000Y-61942500D02*
X108640000Y-61942500D01*
X108640000Y-65242500D01*
X107180000Y-65242500D01*
X107180000Y-61942500D01*
G04 #@! TO.C,C6*
X96410000Y-73200000D02*
X98710000Y-73200000D01*
X98710000Y-78160000D01*
X96410000Y-78160000D01*
X96410000Y-73200000D01*
G04 #@! TO.C,L1*
X120696000Y-62974000D02*
X122396000Y-62974000D01*
X122396000Y-66834000D01*
X120696000Y-66834000D01*
X120696000Y-62974000D01*
G04 #@! TO.C,C1*
X120270000Y-68104000D02*
X123570000Y-68104000D01*
X123570000Y-69564000D01*
X120270000Y-69564000D01*
X120270000Y-68104000D01*
G04 #@! TO.C,U3*
X91587500Y-70450000D02*
X92587500Y-70450000D01*
X91587500Y-73450000D02*
X91587500Y-70450000D01*
X92587500Y-70250000D02*
X94687500Y-70250000D01*
X92587500Y-70450000D02*
X92587500Y-70250000D01*
X92587500Y-73450000D02*
X91587500Y-73450000D01*
X92587500Y-73650000D02*
X92587500Y-73450000D01*
X94687500Y-70250000D02*
X94687500Y-70450000D01*
X94687500Y-70450000D02*
X95687500Y-70450000D01*
X94687500Y-73450000D02*
X94687500Y-73650000D01*
X94687500Y-73650000D02*
X92587500Y-73650000D01*
X95687500Y-70450000D02*
X95687500Y-73450000D01*
X95687500Y-73450000D02*
X94687500Y-73450000D01*
G04 #@! TO.C,R5*
X103767500Y-63850000D02*
X107067500Y-63850000D01*
X107067500Y-65310000D01*
X103767500Y-65310000D01*
X103767500Y-63850000D01*
G04 #@! TO.C,C10*
D11*
X78000900Y-66068864D02*
X81235664Y-62834100D01*
X78000900Y-70597536D02*
X78000900Y-66068864D01*
X81235664Y-62834100D02*
X85764336Y-62834100D01*
X81235664Y-73832300D02*
X78000900Y-70597536D01*
X85764336Y-62834100D02*
X88999100Y-66068864D01*
X85764336Y-73832300D02*
X81235664Y-73832300D01*
X88999100Y-66068864D02*
X88999100Y-70597536D01*
X88999100Y-70597536D02*
X85764336Y-73832300D01*
G04 #@! TO.C,C4*
D10*
X103151500Y-72168000D02*
X106451500Y-72168000D01*
X106451500Y-73628000D01*
X103151500Y-73628000D01*
X103151500Y-72168000D01*
G04 #@! TO.C,C8*
X89070000Y-72620000D02*
X91370000Y-72620000D01*
X91370000Y-77580000D01*
X89070000Y-77580000D01*
X89070000Y-72620000D01*
G04 #@! TO.C,R2*
X96648000Y-69120000D02*
X99948000Y-69120000D01*
X99948000Y-70580000D01*
X96648000Y-70580000D01*
X96648000Y-69120000D01*
G04 #@! TO.C,R4*
X122302000Y-81058000D02*
X125602000Y-81058000D01*
X125602000Y-82518000D01*
X122302000Y-82518000D01*
X122302000Y-81058000D01*
G04 #@! TO.C,D1*
X97580000Y-63278000D02*
X100540000Y-63278000D01*
X100540000Y-64738000D01*
X97580000Y-64738000D01*
X97580000Y-63278000D01*
G04 #@! TO.C,U2*
X104300000Y-67020000D02*
X107120000Y-67020000D01*
X104300000Y-70100000D02*
X104300000Y-67020000D01*
X107120000Y-67020000D02*
X107120000Y-70100000D01*
X107120000Y-70100000D02*
X104300000Y-70100000D01*
G04 #@! TO.C,R1*
X87908500Y-63278000D02*
X91208500Y-63278000D01*
X91208500Y-64738000D01*
X87908500Y-64738000D01*
X87908500Y-63278000D01*
G04 #@! TO.C,C9*
X86810000Y-72925000D02*
X88270000Y-72925000D01*
X88270000Y-75885000D01*
X86810000Y-75885000D01*
X86810000Y-72925000D01*
G04 #@! TO.C,C2*
X120169500Y-69628000D02*
X123469500Y-69628000D01*
X123469500Y-71088000D01*
X120169500Y-71088000D01*
X120169500Y-69628000D01*
G04 #@! TO.C,BT1*
X91205000Y-63730000D02*
X97295000Y-63730000D01*
X97295000Y-67270000D01*
X91205000Y-67270000D01*
X91205000Y-63730000D01*
G04 #@! TO.C,R6*
X103772500Y-62320000D02*
X107072500Y-62320000D01*
X107072500Y-63780000D01*
X103772500Y-63780000D01*
X103772500Y-62320000D01*
G04 #@! TO.C,J1*
X126254000Y-80026000D02*
X126254000Y-82026000D01*
X126254000Y-80026000D02*
X128254000Y-80026000D01*
X128254000Y-82026000D02*
X126254000Y-82026000D01*
X128254000Y-82026000D02*
X128254000Y-80026000D01*
G04 #@! TO.C,R3*
X121794000Y-73946000D02*
X125094000Y-73946000D01*
X125094000Y-75406000D01*
X121794000Y-75406000D01*
X121794000Y-73946000D01*
G04 #@! TO.C,U1*
X108650000Y-65030000D02*
X110080000Y-65030000D01*
X108650000Y-71630000D02*
X108650000Y-65030000D01*
X110080000Y-64580000D02*
X110530000Y-64580000D01*
X110080000Y-65030000D02*
X110080000Y-64580000D01*
X110080000Y-71630000D02*
X108650000Y-71630000D01*
X110080000Y-72080000D02*
X110080000Y-71630000D01*
X110530000Y-63150000D02*
X117130000Y-63150000D01*
X110530000Y-64580000D02*
X110530000Y-63150000D01*
X110530000Y-72080000D02*
X110080000Y-72080000D01*
X110530000Y-73510000D02*
X110530000Y-72080000D01*
X117130000Y-63150000D02*
X117130000Y-64580000D01*
X117130000Y-64580000D02*
X117580000Y-64580000D01*
X117130000Y-72080000D02*
X117130000Y-73510000D01*
X117130000Y-73510000D02*
X110530000Y-73510000D01*
X117580000Y-64580000D02*
X117580000Y-65030000D01*
X117580000Y-65030000D02*
X119010000Y-65030000D01*
X117580000Y-71630000D02*
X117580000Y-72080000D01*
X117580000Y-72080000D02*
X117130000Y-72080000D01*
X119010000Y-65030000D02*
X119010000Y-71630000D01*
X119010000Y-71630000D02*
X117580000Y-71630000D01*
G04 #@! TO.C,C12*
X69270000Y-66020000D02*
X70730000Y-66020000D01*
X70730000Y-68980000D01*
X69270000Y-68980000D01*
X69270000Y-66020000D01*
G04 #@! TO.C,Q1*
X99050000Y-66100000D02*
X100200000Y-66100000D01*
X99050000Y-67900000D02*
X99050000Y-66100000D01*
X99250000Y-67900000D02*
X99050000Y-67900000D01*
X99250000Y-68930000D02*
X99250000Y-67900000D01*
X100200000Y-65070000D02*
X101300000Y-65070000D01*
X100200000Y-66100000D02*
X100200000Y-65070000D01*
X100360000Y-67900000D02*
X100360000Y-68930000D01*
X100360000Y-68930000D02*
X99250000Y-68930000D01*
X101140000Y-67900000D02*
X100360000Y-67900000D01*
X101140000Y-68930000D02*
X101140000Y-67900000D01*
X101300000Y-65070000D02*
X101300000Y-66100000D01*
X101300000Y-66100000D02*
X102450000Y-66100000D01*
X102250000Y-67900000D02*
X102250000Y-68930000D01*
X102250000Y-68930000D02*
X101140000Y-68930000D01*
X102450000Y-66100000D02*
X102450000Y-67900000D01*
X102450000Y-67900000D02*
X102250000Y-67900000D01*
G04 #@! TO.C,C11*
X73350000Y-64950000D02*
X75650000Y-64950000D01*
X75650000Y-69550000D01*
X73350000Y-69550000D01*
X73350000Y-64950000D01*
G04 #@! TO.C,J2*
X125484000Y-63000000D02*
X129024000Y-63000000D01*
X129024000Y-79240000D01*
X125484000Y-79240000D01*
X125484000Y-63000000D01*
G04 #@! TO.C,C5*
X106966000Y-70740000D02*
X108426000Y-70740000D01*
X108426000Y-74040000D01*
X106966000Y-74040000D01*
X106966000Y-70740000D01*
G04 #@! TO.C,C7*
X109759000Y-75978000D02*
X112719000Y-75978000D01*
X112719000Y-77438000D01*
X109759000Y-77438000D01*
X109759000Y-75978000D01*
G04 #@! TO.C,R7*
X99846500Y-72168000D02*
X103146500Y-72168000D01*
X103146500Y-73628000D01*
X99846500Y-73628000D01*
X99846500Y-72168000D01*
G04 #@! TO.C,S1*
X113296000Y-75958000D02*
X113296000Y-82466000D01*
X113296000Y-82466000D02*
X121804000Y-82466000D01*
X121804000Y-75958000D02*
X113296000Y-75958000D01*
X121804000Y-82466000D02*
X121804000Y-75958000D01*
G04 #@! TD*
M02*
